<svg width="695" height="716" viewBox="0 0 695 716" fill="none" xmlns="http://www.w3.org/2000/svg">
<g opacity="0.5">
<path fill-rule="evenodd" clip-rule="evenodd" d="M266.614 503.525L271.214 507.987L283.976 497.59L285.523 499.655L293.702 494.01L288.657 484.698L282.858 486.334L277.619 489.127L280.494 492.966L273.643 490.909L275.619 496.399L264.314 497.744L264.185 508.927L266.614 503.525Z" fill="white"/>
<path fill-rule="evenodd" clip-rule="evenodd" d="M273.773 514.781L271.319 517.478L273.092 518.49L273.773 514.781Z" fill="white"/>
<path fill-rule="evenodd" clip-rule="evenodd" d="M264.152 525.349L271.319 517.478L262.921 512.668L264.152 525.349Z" fill="white"/>
<path fill-rule="evenodd" clip-rule="evenodd" d="M277.83 515.859L274.356 511.591L273.773 514.782L274.461 514.02L277.83 515.859Z" fill="white"/>
<path fill-rule="evenodd" clip-rule="evenodd" d="M282.356 544.995L282.526 545.197L290.13 534.945L280.939 532.483L270.631 531.269L281.555 544.063L279.473 550.93L282.47 553.926L281.708 555.004L289.126 560.324L291.483 557.473L291.013 551.408L284.073 553.287L282.356 544.995Z" fill="white"/>
<path fill-rule="evenodd" clip-rule="evenodd" d="M302.82 535.156L296.868 545.553L309.735 536.427L302.82 535.156Z" fill="white"/>
<path fill-rule="evenodd" clip-rule="evenodd" d="M267.894 443.261L266.76 443.771L267.659 444.605L267.278 446.913L268.039 444.945L269.457 446.249L269.562 442.5L268.857 442.816L272.186 434.2L268.647 438.759L267.894 443.261Z" fill="white"/>
<path fill-rule="evenodd" clip-rule="evenodd" d="M302.269 430.086L296.795 439.342L304.536 432.434L302.269 430.086Z" fill="white"/>
<path fill-rule="evenodd" clip-rule="evenodd" d="M350.233 392.787L352.419 408.521L359.464 392.941L350.233 392.787Z" fill="white"/>
<path fill-rule="evenodd" clip-rule="evenodd" d="M397.209 414.481L391.354 418.87L389.005 421.138L399.816 422.045L409.137 438.338L403.995 422.547L402.65 422.19L411.526 411.412L414.141 411.453L418.741 406.602L411.817 403.201L410.497 408.108L408.108 410.165L399.346 413.372L397.249 412.044L397.209 414.481Z" fill="white"/>
<path fill-rule="evenodd" clip-rule="evenodd" d="M410.894 497.161L401.598 492.318L401.711 486.739L413.267 489.379L408.189 482.358L401.914 477.078L402.011 472.162L400.836 473.288L400.942 476.26L394.528 470.875L396.877 485.637L401.29 486.641L401.476 492.261L400.529 491.759L392.479 511.081L410.894 497.161Z" fill="white"/>
<path fill-rule="evenodd" clip-rule="evenodd" d="M414.295 494.594L410.894 497.161L411.979 497.719L414.295 494.594Z" fill="white"/>
<path fill-rule="evenodd" clip-rule="evenodd" d="M355.901 537.196L354.824 532.556L356.841 550.007L355.901 537.196Z" fill="white"/>
<path fill-rule="evenodd" clip-rule="evenodd" d="M250.305 498.408L249.431 498.051L248.556 491.241L252.135 493.792L253.002 490.933L256.743 488.115L251.447 485.564L249.755 488.82L248.256 488.949L246.969 478.9L236.774 487.03L243.843 495.816L241.155 494.869L244.272 496.075L249.285 498.399L249.414 498.067L250.305 498.408Z" fill="white"/>
<path fill-rule="evenodd" clip-rule="evenodd" d="M239.543 522.556L238.368 523.689L243.575 529.568L239.543 522.556Z" fill="white"/>
<path fill-rule="evenodd" clip-rule="evenodd" d="M225.671 454.201L223.42 456.218L229 456.566L226.805 455.375L225.671 454.201Z" fill="white"/>
<path fill-rule="evenodd" clip-rule="evenodd" d="M194.122 474.47L191.758 480.195L192.948 477.904L193.069 481.216L194.122 474.47Z" fill="white"/>
<path fill-rule="evenodd" clip-rule="evenodd" d="M229.842 550.096L229.801 552.404L227.696 551.303L227.639 554.51L231.907 554.574L229.842 550.096Z" fill="white"/>
<path fill-rule="evenodd" clip-rule="evenodd" d="M274.226 578.366L272.218 570.43L272.129 576.204L271.084 578.293L274.226 578.366Z" fill="white"/>
<path fill-rule="evenodd" clip-rule="evenodd" d="M302.609 556.243L301.508 555.781L302.075 553.651L308.642 554.307L307.055 550.995L299.386 550.866L297.896 554.283L297.677 554.194L297.872 554.324L296.536 557.401L294.309 559.547L291.013 560.041L294.778 563.936L300.325 560.194L301.249 556.753L302.139 557.401L302.528 556.453L303.297 565.102L302.609 556.243Z" fill="white"/>
<path fill-rule="evenodd" clip-rule="evenodd" d="M291.013 551.408L297.678 554.194L290.187 548.793L291.013 551.408Z" fill="white"/>
<path fill-rule="evenodd" clip-rule="evenodd" d="M410.4 384.552L409.226 393.354L413.866 384.608L410.4 384.552Z" fill="white"/>
<path fill-rule="evenodd" clip-rule="evenodd" d="M438.508 432.434L440.467 424.401L439.714 426.604L439.73 425.454L438.508 432.434Z" fill="white"/>
<path fill-rule="evenodd" clip-rule="evenodd" d="M434.329 472.697L434.353 471.539L433.746 479.791L434.329 472.697Z" fill="white"/>
<path fill-rule="evenodd" clip-rule="evenodd" d="M438.443 502.789L438.677 509.413L437.042 509.68L438.758 511.931L438.767 512.069L438.799 511.988L440.508 514.215L458.995 509.089L449.893 508.741L449.909 507.591L440.054 509.194L441.868 505.145L438.443 502.789Z" fill="white"/>
<path fill-rule="evenodd" clip-rule="evenodd" d="M385.426 577.111L391.03 577.03L388.714 576.997L385.426 577.111Z" fill="white"/>
<path fill-rule="evenodd" clip-rule="evenodd" d="M442.638 528.248L445.002 524.823L435.05 532.192L442.638 528.248Z" fill="white"/>
<path fill-rule="evenodd" clip-rule="evenodd" d="M467.279 504.416L472.988 504.254L463.894 499.744L467.279 504.416Z" fill="white"/>
<path fill-rule="evenodd" clip-rule="evenodd" d="M471.53 457.149L474.697 458.185L473.976 461.206L480.001 461.311L475.15 456.299L474.713 458.145L468.105 454.792L471.53 457.149Z" fill="white"/>
<path fill-rule="evenodd" clip-rule="evenodd" d="M353.075 568.317L349.552 571.726L354.938 585.703L353.075 568.317Z" fill="white"/>
<path fill-rule="evenodd" clip-rule="evenodd" d="M442.305 547.878L439.941 551.295L439.439 558.883L442.305 547.878Z" fill="white"/>
<path fill-rule="evenodd" clip-rule="evenodd" d="M411.509 594.691L413.307 604.894L415.016 592.44L411.509 594.691Z" fill="white"/>
<path fill-rule="evenodd" clip-rule="evenodd" d="M409.436 632.589L405.145 630.379L406.278 631.553L404.092 636.047L409.436 632.589Z" fill="white"/>
<path fill-rule="evenodd" clip-rule="evenodd" d="M368.712 599.752L365.392 599.866L371.927 604.247L369.886 598.619L368.712 599.752Z" fill="white"/>
<path fill-rule="evenodd" clip-rule="evenodd" d="M240.377 420.968L245.778 441.115L243.163 421.956L240.377 420.968Z" fill="white"/>
<path fill-rule="evenodd" clip-rule="evenodd" d="M258.614 449.294L262.152 447.31L262.241 442.119L257.124 437.406L251.892 439.633L252.354 446.573L255.156 451.237L258.427 449.407L262.015 459.206L258.614 449.294Z" fill="white"/>
<path fill-rule="evenodd" clip-rule="evenodd" d="M257.585 409.712L263.278 409.979L258.776 407.428L257.585 409.712Z" fill="white"/>
<path fill-rule="evenodd" clip-rule="evenodd" d="M238.158 458.08L234.846 457.821L237.195 455.554L232.636 459.003L236.871 461.141L238.158 458.08Z" fill="white"/>
<path fill-rule="evenodd" clip-rule="evenodd" d="M306.561 374.996L305.557 371.255L303.217 373.53L306.561 374.996Z" fill="white"/>
<path fill-rule="evenodd" clip-rule="evenodd" d="M275.392 354.727L273.708 343.018L273.595 349.941L275.392 354.727Z" fill="white"/>
<path fill-rule="evenodd" clip-rule="evenodd" d="M282.13 382.64L278.842 381.199L277.692 381.183L282.097 384.827L282.13 382.64Z" fill="white"/>
<path fill-rule="evenodd" clip-rule="evenodd" d="M211.889 353.618L211.824 353.488L211.006 353.52L211.889 353.618Z" fill="white"/>
<path fill-rule="evenodd" clip-rule="evenodd" d="M214.48 353.399L211.29 347.755L208.974 347.714L211.824 353.488L214.48 353.399Z" fill="white"/>
<path fill-rule="evenodd" clip-rule="evenodd" d="M157.747 511.955L164.549 512.295L158.921 510.813L157.747 511.955Z" fill="white"/>
<path fill-rule="evenodd" clip-rule="evenodd" d="M192.6 567.952L196.989 571.313L190.365 563.296L192.6 567.952Z" fill="white"/>
<path fill-rule="evenodd" clip-rule="evenodd" d="M360.193 349.083L362.46 357.278L360.233 346.775L360.193 349.083Z" fill="white"/>
<path fill-rule="evenodd" clip-rule="evenodd" d="M387.969 414.198L384.487 415.291L387.661 423.462L387.969 414.198Z" fill="white"/>
<path fill-rule="evenodd" clip-rule="evenodd" d="M420.555 467.846L414.935 458.517L405.525 475.353L420.555 467.846Z" fill="white"/>
<path fill-rule="evenodd" clip-rule="evenodd" d="M375.717 532.848L376.713 535.229L377.393 534.362L379.572 537.018L378.316 533.172L380.252 530.678L377.385 530.346L374.632 521.924L364.858 519.454L369.951 525.309L373.757 529.933L362.793 528.694L375.717 532.848Z" fill="white"/>
<path fill-rule="evenodd" clip-rule="evenodd" d="M290.454 584.593L291.612 584.61L287.167 583.532L293.71 591.711L290.454 584.593Z" fill="white"/>
<path fill-rule="evenodd" clip-rule="evenodd" d="M260.258 595.63L271.376 601.647L267.141 598.06L260.258 595.63Z" fill="white"/>
<path fill-rule="evenodd" clip-rule="evenodd" d="M261.027 549.465L261.245 549.181L262.128 547.262L261.027 549.465Z" fill="white"/>
<path fill-rule="evenodd" clip-rule="evenodd" d="M261.245 549.181L258.492 555.174L264.565 544.906L261.245 549.181Z" fill="white"/>
<path fill-rule="evenodd" clip-rule="evenodd" d="M250.313 568.916L247.965 567.547L254.71 574.843L251.422 571.24L250.313 568.916Z" fill="white"/>
<path fill-rule="evenodd" clip-rule="evenodd" d="M305.225 598.692L304.075 598.675L305.719 605.672L305.225 598.692Z" fill="white"/>
<path fill-rule="evenodd" clip-rule="evenodd" d="M333.924 597.841L331.891 592.213L330.717 593.347L333.924 597.841Z" fill="white"/>
<path fill-rule="evenodd" clip-rule="evenodd" d="M361.618 555.878L353.383 549.853L356.055 557.133L354.865 561.498L356.168 557.457L361.051 570.77L361.618 555.878Z" fill="white"/>
<path fill-rule="evenodd" clip-rule="evenodd" d="M338.758 595.784L337.762 586.537L339.641 608.053L338.758 595.784Z" fill="white"/>
<path fill-rule="evenodd" clip-rule="evenodd" d="M358.128 611.122L358.145 609.964L353.804 624.88L358.128 611.122Z" fill="white"/>
<path fill-rule="evenodd" clip-rule="evenodd" d="M310.173 648.421L307.824 650.688L313.485 648.672L310.173 648.421Z" fill="white"/>
<path fill-rule="evenodd" clip-rule="evenodd" d="M221.452 637.699L218.95 644.469L221.428 638.849L221.452 637.699Z" fill="white"/>
<path fill-rule="evenodd" clip-rule="evenodd" d="M180.461 603.534L181.263 609.17L181.595 604.708L180.461 603.534Z" fill="white"/>
<path fill-rule="evenodd" clip-rule="evenodd" d="M474.381 494.14L491.67 486.528L479.11 487.289L474.381 494.14Z" fill="white"/>
<path fill-rule="evenodd" clip-rule="evenodd" d="M497.46 494.529L497.986 494.221L497.476 493.371L497.46 494.529Z" fill="white"/>
<path fill-rule="evenodd" clip-rule="evenodd" d="M499.703 497.047L503.112 491.273L497.986 494.221L499.703 497.047Z" fill="white"/>
<path fill-rule="evenodd" clip-rule="evenodd" d="M489.111 510.554L490.204 514.037L492.31 516.263L489.111 510.554Z" fill="white"/>
<path fill-rule="evenodd" clip-rule="evenodd" d="M522.329 514.417L521.446 509.939L519.106 512.206L522.329 514.417Z" fill="white"/>
<path fill-rule="evenodd" clip-rule="evenodd" d="M468.186 519.438L481.896 521.956L469.198 517.235L467.044 518.264L468.186 519.438Z" fill="white"/>
<path fill-rule="evenodd" clip-rule="evenodd" d="M475.693 542.824L465.53 540.176L467.798 542.525L475.693 542.824Z" fill="white"/>
<path fill-rule="evenodd" clip-rule="evenodd" d="M473.142 441.998L476.551 432.993L484.803 422.741L472.114 433.033L473.142 441.998Z" fill="white"/>
<path fill-rule="evenodd" clip-rule="evenodd" d="M421.421 466.445L437.941 456.566L425.34 457.538L425.381 455.222L421.421 466.445Z" fill="white"/>
<path fill-rule="evenodd" clip-rule="evenodd" d="M453.448 433.762L454.517 432.726L454.388 431.527L453.448 433.762Z" fill="white"/>
<path fill-rule="evenodd" clip-rule="evenodd" d="M454.517 432.726L455.618 442.629L455.797 431.487L454.517 432.726Z" fill="white"/>
<path fill-rule="evenodd" clip-rule="evenodd" d="M390.649 392.301L387.224 389.937L386.722 394.123L390.649 392.301Z" fill="white"/>
<path fill-rule="evenodd" clip-rule="evenodd" d="M384.795 410.586L386.722 394.123L376.859 398.715L384.795 410.586Z" fill="white"/>
<path fill-rule="evenodd" clip-rule="evenodd" d="M360.955 378.154L365.352 380.138L361.967 378.106L360.955 378.154Z" fill="white"/>
<path fill-rule="evenodd" clip-rule="evenodd" d="M359.731 376.778L361.966 378.106L364.331 378.009L359.731 376.778Z" fill="white"/>
<path fill-rule="evenodd" clip-rule="evenodd" d="M288.81 392.755L301.33 406.804L300.439 390.973L288.81 392.755Z" fill="white"/>
<path fill-rule="evenodd" clip-rule="evenodd" d="M287.879 392.901L288.81 392.755L287.903 391.743L287.879 392.901Z" fill="white"/>
<path fill-rule="evenodd" clip-rule="evenodd" d="M242.523 412.927L245.155 412.999L246.054 414.125L247.341 413.469L247.082 413.064H247.204L247.139 412.999H247.042L246.523 412.182L244.701 412.441L245.122 412.967L242.523 412.927Z" fill="white"/>
<path fill-rule="evenodd" clip-rule="evenodd" d="M255.042 413.299L247.203 413.064L253.755 419.883L255.042 413.299Z" fill="white"/>
<path fill-rule="evenodd" clip-rule="evenodd" d="M231.558 447.375L235.794 448.168L231.631 442.759L231.558 447.375Z" fill="white"/>
<path fill-rule="evenodd" clip-rule="evenodd" d="M250.977 450.994L235.793 448.168L238.701 451.926L250.977 450.994Z" fill="white"/>
<path fill-rule="evenodd" clip-rule="evenodd" d="M242.75 468.34L239.333 465.976L239.373 473.887L242.75 468.34Z" fill="white"/>
<path fill-rule="evenodd" clip-rule="evenodd" d="M395.062 606.19L383.693 601.153L383.62 605.769L395.062 606.19Z" fill="white"/>
<path fill-rule="evenodd" clip-rule="evenodd" d="M204.528 475.782L205.726 472.924L202.382 472.203L204.528 475.782Z" fill="white"/>
<path fill-rule="evenodd" clip-rule="evenodd" d="M206.933 470.057L205.726 472.924L215.994 475.11L206.933 470.057Z" fill="white"/>
<path fill-rule="evenodd" clip-rule="evenodd" d="M205.629 417.064L207.799 418.117L212.48 414.732L205.629 417.064Z" fill="white"/>
<path fill-rule="evenodd" clip-rule="evenodd" d="M209.759 369.659L210.261 369.579L210.958 367.368L209.759 369.659Z" fill="white"/>
<path fill-rule="evenodd" clip-rule="evenodd" d="M215.46 368.793L210.261 369.579L209.929 370.648L215.46 368.793Z" fill="white"/>
<path fill-rule="evenodd" clip-rule="evenodd" d="M231.712 299.597L230.635 301.654L235.024 301.791L231.737 298.447L231.712 299.597Z" fill="white"/>
<path fill-rule="evenodd" clip-rule="evenodd" d="M98.0897 418.563L92.324 419.648L100.422 418.628L98.0897 418.563Z" fill="white"/>
<path fill-rule="evenodd" clip-rule="evenodd" d="M443.885 325.073L436.856 321.493L441.431 323.882L443.885 325.073Z" fill="white"/>
<path fill-rule="evenodd" clip-rule="evenodd" d="M537.723 503.283L534.298 500.918L533.237 504.157L537.723 503.283Z" fill="white"/>
<path fill-rule="evenodd" clip-rule="evenodd" d="M586.164 432.677L573.548 432.305L565.409 435.625L586.164 432.677Z" fill="white"/>
<path fill-rule="evenodd" clip-rule="evenodd" d="M575.945 495.841L573.637 495.8L581.492 500.351L575.945 495.841Z" fill="white"/>
<path fill-rule="evenodd" clip-rule="evenodd" d="M517.178 419.818L517.202 418.66L515.283 421.016L517.178 419.818Z" fill="white"/>
<path fill-rule="evenodd" clip-rule="evenodd" d="M547.06 359.124L550.461 353.496L548.29 354.533L547.06 359.124Z" fill="white"/>
<path fill-rule="evenodd" clip-rule="evenodd" d="M418.692 646.769L410.708 643.173L407.218 644.266L418.692 646.769Z" fill="white"/>
<path fill-rule="evenodd" clip-rule="evenodd" d="M504.213 428.547L497.468 425.26L495.136 426.377L504.213 428.547Z" fill="white"/>
<path fill-rule="evenodd" clip-rule="evenodd" d="M449.747 384.252L453.108 385.264L451.974 384.09L449.747 384.252Z" fill="white"/>
<path fill-rule="evenodd" clip-rule="evenodd" d="M328.741 365.87L334.069 371.004L334.458 369.433L328.741 365.87Z" fill="white"/>
<path fill-rule="evenodd" clip-rule="evenodd" d="M324.15 355.197L318.611 350.694L319.744 351.869L324.15 355.197Z" fill="white"/>
<path fill-rule="evenodd" clip-rule="evenodd" d="M325.882 329.219L322.457 327.664L323.566 329.996L325.882 329.219Z" fill="white"/>
<path fill-rule="evenodd" clip-rule="evenodd" d="M452.987 591.598L442.743 591.169L441.01 591.144L441.188 596.076L452.987 591.598Z" fill="white"/>
<path fill-rule="evenodd" clip-rule="evenodd" d="M426.239 610.571L426.903 606.498L425.105 609.932L426.239 610.571Z" fill="white"/>
<path fill-rule="evenodd" clip-rule="evenodd" d="M436.945 616.709L426.239 610.571L425.26 616.588L436.945 616.709Z" fill="white"/>
<path fill-rule="evenodd" clip-rule="evenodd" d="M424.709 572.382L425.689 572.746L425.235 571.045L424.498 571.377L424.555 572.252L424.013 571.807L420.879 570.252L432.297 578.609L424.709 572.382Z" fill="white"/>
<path fill-rule="evenodd" clip-rule="evenodd" d="M363.044 431.074L371.287 437.398L378.332 428.547L370.405 428.912L369.83 428.904L363.044 431.074Z" fill="white"/>
<path fill-rule="evenodd" clip-rule="evenodd" d="M400.351 461.198L395.184 467.984L397.5 462.947L388.325 462.113L387.759 461.53L391.443 473.863L395.128 468.13L400.537 461.4L402.958 462.696L409.728 455.691L399.436 453.643L398.261 454.776L400.351 461.198Z" fill="white"/>
<path fill-rule="evenodd" clip-rule="evenodd" d="M425.811 429.835L410.846 429.681L418.069 442.897L415.227 450.331L425.503 443.545L420.976 442.459L420.183 442.038L422.337 430.361L425.811 429.835Z" fill="white"/>
<path fill-rule="evenodd" clip-rule="evenodd" d="M394.164 527.439L397.314 540.322L404.496 532.791L404.537 532.783L404.529 532.759L411.517 525.422L410.343 525.56L418.271 514.158L403.646 512.595L394.455 510.125L403.371 526.37L394.164 527.439Z" fill="white"/>
<path fill-rule="evenodd" clip-rule="evenodd" d="M399.703 541.383L393.953 540.136L408.448 546.242L399.703 541.383Z" fill="white"/>
<path fill-rule="evenodd" clip-rule="evenodd" d="M418.457 524.385L418.757 530.856L421.802 531.358L418.457 524.385Z" fill="white"/>
<path fill-rule="evenodd" clip-rule="evenodd" d="M417.388 542.33L415.907 549.562L419.146 545.618L419.478 546.185L418.757 530.856L415.073 530.248L417.388 542.33Z" fill="white"/>
<path fill-rule="evenodd" clip-rule="evenodd" d="M425.098 406.545L433.495 420.126L429.333 409.112L433.082 408.756L425.098 406.545Z" fill="white"/>
<path fill-rule="evenodd" clip-rule="evenodd" d="M372.186 409.023L366.93 412.4L368.412 414.173L368.064 414.481L368.331 415.024L368.007 415.753L372.056 415.08L364.218 428.199L362.598 427.843L362.29 428.531L362.517 427.802V416.66L364.501 416.328L361.529 412.878L360.898 412.975L361.335 412.262L360.355 400.286L372.186 409.023ZM366.234 415.874L365.805 416.117L366.177 416.052L366.234 415.874Z" fill="white"/>
<path fill-rule="evenodd" clip-rule="evenodd" d="M294.819 530.686L295.613 535.034L306.472 531.746L321.097 531.941L315.25 529.698L320.587 527.665L322.319 522.215L316.861 521.033L310.748 526.41L314.74 529.503L306.213 526.24L302.634 522.094L301.88 514.579L295.613 517.851L289.879 530.143L296.495 520.247L297.386 521.462L294.819 530.686Z" fill="white"/>
<path fill-rule="evenodd" clip-rule="evenodd" d="M303.589 510.7L306.132 509.809L302.204 503.396L293.572 501.517L283.733 503.08L284.186 510.595L292.252 511.308L295.102 513.664L301.564 511.405L301.88 514.579L305.508 512.684L303.589 510.7Z" fill="white"/>
<path fill-rule="evenodd" clip-rule="evenodd" d="M369.239 568.3L378.535 562.227L379.134 563.272L373.417 552.777L374.049 552.526L373.652 550.793L372.769 551.595L370.729 547.853L366.882 554.631L361.967 546.784L361.618 555.878L365.594 558.785L369.239 568.3Z" fill="white"/>
<path fill-rule="evenodd" clip-rule="evenodd" d="M390.73 550.598L393.054 558.154L400.431 558.065L390.73 550.598Z" fill="white"/>
<path fill-rule="evenodd" clip-rule="evenodd" d="M282.85 426.28L281.587 423.972L286.268 413.793L273.238 415.915L281.466 423.98L282.85 426.28Z" fill="white"/>
<path fill-rule="evenodd" clip-rule="evenodd" d="M267.254 418.53L273.238 415.915L274.267 413.453L267.254 418.53Z" fill="white"/>
<path fill-rule="evenodd" clip-rule="evenodd" d="M284.081 434.378L280.931 429.147L279.741 439.479L284.081 434.378Z" fill="white"/>
<path fill-rule="evenodd" clip-rule="evenodd" d="M260.792 389.823L259.982 387.24L261.95 399.8L260.816 389.831L260.792 389.823Z" fill="white"/>
<path fill-rule="evenodd" clip-rule="evenodd" d="M239.065 395.548L244.993 398.998L240.839 392.981L239.065 395.548Z" fill="white"/>
<path fill-rule="evenodd" clip-rule="evenodd" d="M262.266 359.505L263.043 359.578L266.59 354.444L262.266 359.505Z" fill="white"/>
<path fill-rule="evenodd" clip-rule="evenodd" d="M291.75 351.399L290.017 351.375L293.224 356.727L291.75 351.399Z" fill="white"/>
<path fill-rule="evenodd" clip-rule="evenodd" d="M369.368 318.06L370.955 321.534L371.911 321.566L369.368 318.06Z" fill="white"/>
<path fill-rule="evenodd" clip-rule="evenodd" d="M369.425 321.655L373.425 327.583L370.955 321.534L369.425 321.655Z" fill="white"/>
<path fill-rule="evenodd" clip-rule="evenodd" d="M283.474 328.749L285.15 332.239L285.126 331.511L283.474 328.749Z" fill="white"/>
<path fill-rule="evenodd" clip-rule="evenodd" d="M252.354 325.631L248.815 329.899L253.293 329.203L252.354 325.631Z" fill="white"/>
<path fill-rule="evenodd" clip-rule="evenodd" d="M255.48 345.601L253.763 344.702L254.686 348.921L255.48 345.601Z" fill="white"/>
<path fill-rule="evenodd" clip-rule="evenodd" d="M242.24 309.015L240.45 312.44L244.701 309.185L242.24 309.015Z" fill="white"/>
<path fill-rule="evenodd" clip-rule="evenodd" d="M281.806 480.536L284.017 476.373L281.846 478.228L281.806 480.536Z" fill="white"/>
<path fill-rule="evenodd" clip-rule="evenodd" d="M259.925 508.303L259.27 502.222L250.613 502.991L243.349 501.833L259.925 508.303Z" fill="white"/>
<path fill-rule="evenodd" clip-rule="evenodd" d="M234.757 489.67L236.774 487.03L236.677 486.706L234.757 489.67Z" fill="white"/>
<path fill-rule="evenodd" clip-rule="evenodd" d="M278.21 453.926L270.687 454.954L267.076 463.554L273.975 465.401L282.146 460.34L278.21 453.926Z" fill="white"/>
<path fill-rule="evenodd" clip-rule="evenodd" d="M221.274 527.73L214.343 527.617L214.245 533.674L221.185 532.921L221.274 527.73Z" fill="white"/>
<path fill-rule="evenodd" clip-rule="evenodd" d="M255.229 568.13L254.71 574.843L263.934 565.668L255.229 568.13Z" fill="white"/>
<path fill-rule="evenodd" clip-rule="evenodd" d="M296.795 439.342L286.859 437.042L285.92 441.35L298.771 449.359L301.476 443.35L296.795 439.342Z" fill="white"/>
<path fill-rule="evenodd" clip-rule="evenodd" d="M369.976 541.464L373.522 536.33L364.922 532.726L358.039 530.014L358.744 539.545L369.976 541.464Z" fill="white"/>
<path fill-rule="evenodd" clip-rule="evenodd" d="M387.88 558.219L393.427 562.527L389.467 566.908L393.718 571.305L401.565 567.968L395.63 560.081L394.156 561.717L393.054 558.154L387.88 558.219Z" fill="white"/>
<path fill-rule="evenodd" clip-rule="evenodd" d="M439.941 551.295L436.596 544.314L432.183 549.432L439.941 551.295Z" fill="white"/>
<path fill-rule="evenodd" clip-rule="evenodd" d="M452.655 567.96L462.178 568.122L461.498 556.85L451.918 560.154L452.655 567.96Z" fill="white"/>
<path fill-rule="evenodd" clip-rule="evenodd" d="M460.963 484.973L452.444 477.037L450.566 485.67L460.963 484.973Z" fill="white"/>
<path fill-rule="evenodd" clip-rule="evenodd" d="M346.111 362.695L349.666 357.561L341.034 355.683L340.07 361.732L346.111 362.695Z" fill="white"/>
<path fill-rule="evenodd" clip-rule="evenodd" d="M313.379 352.63L307.314 352.524L303.783 356.8L309.776 361.222L313.379 352.63Z" fill="white"/>
<path fill-rule="evenodd" clip-rule="evenodd" d="M250.993 527.941L252.046 534.305L258.371 535.569L258.5 528.062L250.993 527.941Z" fill="white"/>
<path fill-rule="evenodd" clip-rule="evenodd" d="M266.428 467.587L264.209 462.348L257.31 461.077L256.087 465.101L260.047 469.79L266.428 467.587Z" fill="white"/>
<path fill-rule="evenodd" clip-rule="evenodd" d="M291.386 459.918L296.091 454.801L291.572 448.954L286.843 455.222L291.386 459.918Z" fill="white"/>
<path fill-rule="evenodd" clip-rule="evenodd" d="M316.084 397.986L309.169 397.298L310.229 403.088L311.436 405.072L296.973 411.971L313.776 408.926L316.967 414.165L316.084 397.986Z" fill="white"/>
<path fill-rule="evenodd" clip-rule="evenodd" d="M396.212 577.694L396.593 582.82L389.062 584.82L388.179 588.505L392.69 588.99L403.168 581.079L400.699 581.735L402.504 580.69L399.686 576.601L393.718 571.305L391.03 577.03L396.212 577.694Z" fill="white"/>
<path fill-rule="evenodd" clip-rule="evenodd" d="M414.7 553.506L415.421 554L412.19 554.291L414.7 553.506L409.623 555.077L415.664 554.17L416.789 554.947L416.133 560.138L420.741 560.211L423.13 555.635L415.906 549.562L411.655 551.4L414.7 553.506Z" fill="white"/>
<path fill-rule="evenodd" clip-rule="evenodd" d="M445.002 524.823L451.189 534.743L454.201 527.293L447.934 521.989L441.585 521.892L438.054 525.868L445.002 524.823Z" fill="white"/>
<path fill-rule="evenodd" clip-rule="evenodd" d="M231.413 421.397L222.254 416.627L218.124 422.328L222.141 423.551L224.902 431.106L233.048 427.195L231.413 421.397Z" fill="white"/>
<path fill-rule="evenodd" clip-rule="evenodd" d="M202.957 431.317L202.9 434.783L206.35 435.989L208.714 432.564L202.957 431.317Z" fill="white"/>
<path fill-rule="evenodd" clip-rule="evenodd" d="M363.287 578.876L371.895 581.913L373.709 577.321L369.7 574.949L369.077 577.823L363.287 578.876Z" fill="white"/>
<path fill-rule="evenodd" clip-rule="evenodd" d="M421.267 390.504L421.17 396.277L425.778 396.933L425.26 393.459L432.216 391.848L431.147 386.633L429.373 388.908L421.267 390.504Z" fill="white"/>
<path fill-rule="evenodd" clip-rule="evenodd" d="M399.112 369.36L403.152 369.425L406.068 367.165L406.537 366.631L408.861 368.137L409.331 367.093L407.185 365.878L409.015 363.748L401.525 363.052L399.112 369.36Z" fill="white"/>
<path fill-rule="evenodd" clip-rule="evenodd" d="M339.649 387.264L334.41 389.346L336.936 393.718L341.682 394.658L342.046 398.998L346.475 393.006L342.192 389.904L339.649 387.264Z" fill="white"/>
<path fill-rule="evenodd" clip-rule="evenodd" d="M353.569 383.167L351.302 388.762L356.039 390.568L360.412 387.621L353.569 383.167Z" fill="white"/>
<path fill-rule="evenodd" clip-rule="evenodd" d="M374.008 448.622L385.038 451.61L381.312 461.327L372.761 458.509L375.676 465.716L362.558 474.948L371.376 480.309L374.203 472.106H371.911L374.713 468.316L375.523 468.227L376.697 464.809L376.648 468.105L383.458 467.368L381.183 472.227L376.575 472.146L376.551 474.697L394.18 477.936L384.973 496.942L389.418 500.23L383.58 504.181L378.413 500.707L376.664 504.91L381.758 505.501L378.875 508.975L389.742 511.494L384.26 518.069L389.67 519.883L382.641 526.118L378.106 520.847L379.612 518.32L372.858 514.077L370.486 519.794L372.542 513.591L372.389 513.34L362.93 506.497L358.339 510.287L368.631 518.085L358.258 517.049L353.723 519.154L354.428 521.584L347.852 521.041L348.719 528.896L351.771 529.965L352.865 538.2L349.577 538.557L346.403 531.52L345.649 527.811L348.079 528.669L346.548 520.928L345.787 520.863L341.382 522.256L343.868 532.378L347.285 534.743L336.539 529.746L334.701 524.823L329.899 538.921L333.033 538.192L336.539 529.746L348.476 540.274L346.597 541.974V541.108L345.293 544.598L342.224 562.956L347.893 566.195L346.54 571.256L348.451 569.402L349.585 570.584L346.475 571.507L345.269 576.018L344.815 575.718L345.625 577.289L343.641 578.05L342.702 576.22L344.767 575.71L338.734 571.799L339.681 566.656L325.178 564.114L324.174 569.572L314.456 565.944L314.027 557.279L319.825 555.659L310.748 546.274L306.699 547.942L303.913 542.12L312.44 542.266L313.363 536.881L319.323 540.265L319.226 546.29L315.177 544.986L325.154 557.943L327.583 556.275L322.724 548.485L326.838 547.732L328.077 549.351L329.267 539.577L324.627 519.211L333.09 520.474L330.474 513.461L328.215 511.032L325.097 507.607L320.967 503.153L324.627 519.187L316.983 518.037L319.145 501.177L316.756 498.602L319.275 500.165L319.639 497.306V497.412L319.396 491.038L315.558 492.002L316.287 514.879L312.343 508.991L312.634 511.615L307.719 513.202L307.8 508.279L309.476 506.254L310.286 505.874L302.472 494.197L302.536 495.598L300.86 497.76L296.56 492.755L297.767 486.204L302.132 487.37L302.342 491.638L313.477 483.54L314.286 480.382L307.185 486.682L307.824 482.058L299.273 474.608L300.034 482.933L285.102 476.155L284.017 476.398L291.45 467.83L288.981 465.627L302.747 452.331L301.605 451.731L302.213 447.909L304.464 444.111L309.363 446.387L312.027 450.808L314.214 452.039L318.028 450.565L317.04 445.496L314.424 446.565L308.399 444.306L308.885 440.848L312.813 439.18L313.622 442.662L315.817 442.362L304.909 426.231L305.103 427.681L296.601 422.506L293.564 425.438L290.187 420.19L290.333 419.963L288.033 419.721H290.462L292.406 416.716L292.228 416.287L295.88 416.344L296.844 420.879L304.01 422.109L325.47 423.518L320.813 425.745L325.097 431.414L330.061 420.636L321.194 406.221L319.817 407.736L323.688 400.65L323.542 400.399L323.777 400.488L330.685 387.823L330.547 395.921L325.737 401.217L332.944 404.407L333.316 403.177L340.71 406.651L341.309 402.027L346.775 402.666L346.184 405.395L350.516 408.205L344.969 411.372L343.35 409.663L337.033 413.874L334.976 416.903L339.495 415.696L325.324 434.726L318.999 441.949H319.291L320.546 444.136L317.558 445.358L322.7 448.735L322.101 445.496L324.587 443.666L332.863 440.508L334.175 438.751H332.183L330.563 432.369L338.175 425.575L339.447 436.734L346.799 439.973L355.496 429.754L349.091 432.369L339.374 423.624L347.528 416.983L345.779 419.267L353.172 416.562L361.035 427.511L356.29 429.454L364.995 437.285L363.926 448.079L370.866 447.44L370.947 448.913L383.175 435.39L384.916 423.98L387.459 427.486L396.86 429.333L386.268 437.09L385.969 438.467L396.14 440.751L397.759 437.512L401.581 438.127L398.747 444.103L394.35 444.581L396.043 441.067L390.471 441.99L385.248 448.735L384.673 442.257L374.008 448.622ZM326.911 406.254L324.725 402.383L322.295 405.096L326.911 406.254ZM332.077 542.8L329.041 550.655L331.381 553.684L342.378 546.055L332.11 543.019L332.077 542.8ZM345.941 511.534L346.006 507.437L333.333 505.202L333.908 511.891L338.45 510.352L339.349 514.02L341.309 512.133L345.941 511.534ZM346.273 506.675L346.322 507.097L346.791 507.55L346.362 507.477L346.791 511.397L351.318 510.822L346.273 506.675ZM343.35 504.246L346.014 506.773V506.433L343.35 504.246ZM369.376 491.954L371.935 493.573L364.007 502.011L367.708 502.416L366.356 503.534L366.842 503.793L375.498 504.602L376.097 502.789L378.381 500.586L373.879 497.557L379.069 495.266L369.376 491.954ZM368.364 488.998L366.923 490.358L367.732 490.877L368.364 488.998ZM307.857 470.186L308.335 478.284L309.25 471.644L307.857 470.186ZM306.909 454.541L307.46 463.927L308.043 463.4L307.679 459.651L310.829 456.59L306.909 454.541ZM373.757 448.759L371.004 450.42L371.158 452.995L373.757 448.759Z" fill="white"/>
<path fill-rule="evenodd" clip-rule="evenodd" d="M286.851 411.493L287.207 416.263L292.212 416.352L290.722 412.862L286.851 411.493Z" fill="white"/>
<path fill-rule="evenodd" clip-rule="evenodd" d="M310.95 420.126L309.266 417.502L305.322 420.466L307.897 421.373L310.95 420.126Z" fill="white"/>
<path fill-rule="evenodd" clip-rule="evenodd" d="M328.029 574.074L330.579 569.191L324.19 569.564L322.303 572.341L328.029 574.074Z" fill="white"/>
<path fill-rule="evenodd" clip-rule="evenodd" d="M323.348 608.506L316.748 610.045L319.946 615.025L324.91 613.462L323.348 608.506Z" fill="white"/>
<path fill-rule="evenodd" clip-rule="evenodd" d="M354.5 612.312L355.424 606.579L349.658 607.308L350.395 612.247L354.5 612.312Z" fill="white"/>
<path fill-rule="evenodd" clip-rule="evenodd" d="M386.406 621.066L382.406 614.426L377.409 618.451L378.98 622.58L386.406 621.066Z" fill="white"/>
<path fill-rule="evenodd" clip-rule="evenodd" d="M342.378 600.603L346.346 608.895L349.658 607.308L348.962 599.898L342.378 600.603Z" fill="white"/>
<path fill-rule="evenodd" clip-rule="evenodd" d="M306.739 569.612L304.18 575.321L310.853 576.042L308.108 577.799L311.015 576.058L313.201 576.293L313.444 574.6L317.218 572.341L314.894 573.459L313.477 574.357L314.132 569.734L306.739 569.612Z" fill="white"/>
<path fill-rule="evenodd" clip-rule="evenodd" d="M257.172 483.443L266.298 481.839L266.833 477.977L272.526 472.478L272.186 474.114L279.668 470.114L273.975 465.401L272.534 472.43L265.869 477.207L262.314 474.381L256.484 479.208L257.172 483.443Z" fill="white"/>
<path fill-rule="evenodd" clip-rule="evenodd" d="M272.898 431.009L277.077 426.968L271.408 421.948L268.031 427.64L272.898 431.009Z" fill="white"/>
<path fill-rule="evenodd" clip-rule="evenodd" d="M470.786 586.593L477.904 586.715L474.195 579.532L469.199 583.281L470.786 586.593Z" fill="white"/>
<path fill-rule="evenodd" clip-rule="evenodd" d="M403.476 549.87L401.905 545.456L396.391 548.104L401.727 556.413L403.476 549.87Z" fill="white"/>
<path fill-rule="evenodd" clip-rule="evenodd" d="M377.871 541.772L383.224 548.979L383.969 547.934L384.114 547.959L384.236 547.562L389.394 540.322L384.997 538.662L390.682 528.54L383.75 528.427L382.341 537.666L381.774 537.448L377.871 541.772Z" fill="white"/>
<path fill-rule="evenodd" clip-rule="evenodd" d="M437.722 489.046L434.766 485.386L424.02 489.289L422.352 493.719L416.651 494.334L412.854 503.112L423.518 495.12L428.353 497.816L429.551 490.067L437.722 489.046Z" fill="white"/>
<path fill-rule="evenodd" clip-rule="evenodd" d="M356.67 367.773L356.193 363.384L352.346 364.412L352.824 368.259L356.67 367.773Z" fill="white"/>
<path fill-rule="evenodd" clip-rule="evenodd" d="M315.404 346.265L317.121 341.908L311.145 338.523L310.505 343.997L315.404 346.265Z" fill="white"/>
<path fill-rule="evenodd" clip-rule="evenodd" d="M343.422 380.033L334.069 371.004L330.093 387.11L324.692 380.389L321.915 382.527L322.943 386.382L325.623 390.261L330.685 387.839L330.385 387.475L343.422 380.033Z" fill="white"/>
<path fill-rule="evenodd" clip-rule="evenodd" d="M372.218 420.619L377.142 421.251L378.316 416.336L372.267 417.874L372.218 420.619Z" fill="white"/>
<path fill-rule="evenodd" clip-rule="evenodd" d="M295.904 332.798L291.499 333.818L291.993 337.114L295.847 336.078L295.904 332.798Z" fill="white"/>
<path fill-rule="evenodd" clip-rule="evenodd" d="M264.517 375.547L265.667 371.733L259.658 371.085L260.136 375.474L264.517 375.547Z" fill="white"/>
<path fill-rule="evenodd" clip-rule="evenodd" d="M280.048 396.617L273.489 395.419L272.477 391.014L269.141 393.702L271.789 399.225L276.186 398.197L279.943 402.642L284.891 401.63L280.048 396.617Z" fill="white"/>
<path fill-rule="evenodd" clip-rule="evenodd" d="M279.514 559.846L272.979 557.547L272.332 563.563L276.729 562.543L279.514 559.846Z" fill="white"/>
<path fill-rule="evenodd" clip-rule="evenodd" d="M284.47 525.422L280.105 524.256L278.972 526.426L274.583 527.447L280.939 532.484L282.761 529.228L284.47 525.422Z" fill="white"/>
<path fill-rule="evenodd" clip-rule="evenodd" d="M285.725 516.134L284.673 513.372L280.875 511.121L277.83 515.858L280.794 516.045L285.725 516.134Z" fill="white"/>
<path fill-rule="evenodd" clip-rule="evenodd" d="M251.787 514.466L256.735 513.453L255.172 508.498L249.115 510.587L251.787 514.466Z" fill="white"/>
<path fill-rule="evenodd" clip-rule="evenodd" d="M209.889 497.881L209.832 501.169L213.112 501.768L215.355 498.521L209.889 497.881Z" fill="white"/>
<path fill-rule="evenodd" clip-rule="evenodd" d="M189.806 486.593L185.401 488.164L186.972 492.569L191.912 491.557L189.806 486.593Z" fill="white"/>
<path fill-rule="evenodd" clip-rule="evenodd" d="M211.249 482.018L212.82 486.431L216.699 483.751L211.249 482.018Z" fill="white"/>
<path fill-rule="evenodd" clip-rule="evenodd" d="M246.394 542.314L240.92 542.225L244.135 546.112L246.394 542.314Z" fill="white"/>
<path fill-rule="evenodd" clip-rule="evenodd" d="M233.777 501.453L229.461 503.258L231.243 507.032L233.777 501.453Z" fill="white"/>
<path fill-rule="evenodd" clip-rule="evenodd" d="M277.182 568.025L278.226 571.329L274.89 574.018L278.105 578.99L280.372 574.107L282.113 568.106L277.182 568.025Z" fill="white"/>
<path fill-rule="evenodd" clip-rule="evenodd" d="M272.031 581.629L268.258 577.734L263.342 577.103L265.448 582.075L272.031 581.629Z" fill="white"/>
<path fill-rule="evenodd" clip-rule="evenodd" d="M241.43 577.289L235.332 581.573L238.563 584.909L242.482 580.042L241.43 577.289Z" fill="white"/>
<path fill-rule="evenodd" clip-rule="evenodd" d="M216.383 568.106L213.063 570.236L217.97 571.418L216.383 568.106Z" fill="white"/>
<path fill-rule="evenodd" clip-rule="evenodd" d="M194.276 546.922L198.633 548.639L197.086 542.582L194.276 546.922Z" fill="white"/>
<path fill-rule="evenodd" clip-rule="evenodd" d="M174.136 539.464L175.716 543.327L178.566 536.249L174.136 539.464Z" fill="white"/>
<path fill-rule="evenodd" clip-rule="evenodd" d="M174.517 450.727L170.663 452.306L172.266 454.525L175.011 454.023L174.517 450.727Z" fill="white"/>
<path fill-rule="evenodd" clip-rule="evenodd" d="M195.094 399.581L193.936 403.395L197.207 404.545L198.373 399.638L195.094 399.581Z" fill="white"/>
<path fill-rule="evenodd" clip-rule="evenodd" d="M195.572 371.101L196.527 379.337L203.143 376.713L195.572 371.101Z" fill="white"/>
<path fill-rule="evenodd" clip-rule="evenodd" d="M212.423 442.978L209.54 444.055L210.917 447.148L213.322 446.516L212.423 442.978Z" fill="white"/>
<path fill-rule="evenodd" clip-rule="evenodd" d="M185.295 493.095L183.028 493.816L183.344 497.023L185.765 495.824L185.295 493.095Z" fill="white"/>
<path fill-rule="evenodd" clip-rule="evenodd" d="M177.991 486.423L175.781 487.257L176.615 489.913L178.874 488.625L177.991 486.423Z" fill="white"/>
<path fill-rule="evenodd" clip-rule="evenodd" d="M185.749 459.538H182.712L184.267 461.862L186.219 461.117L185.749 459.538Z" fill="white"/>
<path fill-rule="evenodd" clip-rule="evenodd" d="M240.369 370.348L241.948 372.534L243.43 371.652L242.993 369.919L240.369 370.348Z" fill="white"/>
<path fill-rule="evenodd" clip-rule="evenodd" d="M207.994 359.408L210.917 362.582L210.909 358.671L207.994 359.408Z" fill="white"/>
<path fill-rule="evenodd" clip-rule="evenodd" d="M258.111 430.766L259.35 431.803L261.634 431.049L261.221 429.729L258.873 429.948L258.111 430.766Z" fill="white"/>
<path fill-rule="evenodd" clip-rule="evenodd" d="M163.828 405.007L162.233 405.825L162.694 407.906L164.549 407.007L163.828 405.007Z" fill="white"/>
<path fill-rule="evenodd" clip-rule="evenodd" d="M178.809 392.82L179.886 393.799L180.655 390.504L178.809 392.82Z" fill="white"/>
<path fill-rule="evenodd" clip-rule="evenodd" d="M254.881 391.249L254.662 389.783L252.127 390.107L253.051 391.767L254.881 391.249Z" fill="white"/>
<path fill-rule="evenodd" clip-rule="evenodd" d="M164.201 352.573L167.237 353.391L164.873 351.537L164.201 352.573Z" fill="white"/>
<path fill-rule="evenodd" clip-rule="evenodd" d="M263.432 438.937L265.934 435.69L263.01 438.346L263.432 438.937Z" fill="white"/>
<path fill-rule="evenodd" clip-rule="evenodd" d="M182.833 475.353L180.744 476.438L181.165 477.288L183.165 476.171L182.833 475.353Z" fill="white"/>
<path fill-rule="evenodd" clip-rule="evenodd" d="M201.775 480.017L200.714 480.56V482.463L202.277 481.337L201.775 480.017Z" fill="white"/>
<path fill-rule="evenodd" clip-rule="evenodd" d="M234.838 402.845L235.664 403.347L237.34 400.861L236.312 400.367L234.838 402.845Z" fill="white"/>
<path fill-rule="evenodd" clip-rule="evenodd" d="M192.251 424.223L190.616 425.559L192.762 425.211L192.251 424.223Z" fill="white"/>
<path fill-rule="evenodd" clip-rule="evenodd" d="M219.776 412.789L220.084 413.639L223.007 412.595L219.776 412.789Z" fill="white"/>
<path fill-rule="evenodd" clip-rule="evenodd" d="M225.413 463.109L225.137 464.291L227.04 464.534L227.202 463.7L225.413 463.109Z" fill="white"/>
<path fill-rule="evenodd" clip-rule="evenodd" d="M230.158 378.559L229.121 379.142L228.959 380.478L229.469 380.665L230.668 379.126L230.158 378.559Z" fill="white"/>
<path fill-rule="evenodd" clip-rule="evenodd" d="M229.826 474.211L230.83 475.361L231.955 474.899L231.567 473.847L229.826 474.211Z" fill="white"/>
<path fill-rule="evenodd" clip-rule="evenodd" d="M195.15 359.829L193.701 360.493L194.292 361.594L195.393 361.141L195.15 359.829Z" fill="white"/>
<path fill-rule="evenodd" clip-rule="evenodd" d="M226.967 482.746L226.716 481.613L224.967 481.402L225.526 482.908L226.967 482.746Z" fill="white"/>
<path fill-rule="evenodd" clip-rule="evenodd" d="M254.832 384.179L253.269 384.365L253.561 385.434L255.091 385.24L254.832 384.179Z" fill="white"/>
<path fill-rule="evenodd" clip-rule="evenodd" d="M239.818 413.769L238.117 413.825L238.539 414.846L240.02 414.627L239.818 413.769Z" fill="white"/>
<path fill-rule="evenodd" clip-rule="evenodd" d="M241.689 437.706L240.409 438.41L240.717 440.038L242.029 438.556L241.689 437.706Z" fill="white"/>
<path fill-rule="evenodd" clip-rule="evenodd" d="M242.539 364.857L242.491 365.943L243.122 366.898L243.851 365.716L242.539 364.857Z" fill="white"/>
<path fill-rule="evenodd" clip-rule="evenodd" d="M252.645 410.019L251.398 410.473L252.038 411.372L253.22 411.015L252.645 410.019Z" fill="white"/>
<path fill-rule="evenodd" clip-rule="evenodd" d="M251.09 423.041L251.398 423.778L252.354 423.737L252.799 422.612L251.09 423.041Z" fill="white"/>
<path fill-rule="evenodd" clip-rule="evenodd" d="M247.423 439.876L246.289 440.054L246.621 441.472L247.795 440.605L247.423 439.876Z" fill="white"/>
<path fill-rule="evenodd" clip-rule="evenodd" d="M212.415 378.899L212.61 377.968L210.715 377.863L210.658 378.438L212.415 378.899Z" fill="white"/>
<path fill-rule="evenodd" clip-rule="evenodd" d="M245.794 379.037L244.312 379.369L244.58 380.843L246.078 379.839L245.794 379.037Z" fill="white"/>
<path fill-rule="evenodd" clip-rule="evenodd" d="M362.736 345.018L366.258 344.054L365.133 341.179L362.056 342.629L362.736 345.018Z" fill="white"/>
<path fill-rule="evenodd" clip-rule="evenodd" d="M314.861 315.655L311.655 316.035L312.894 318.432L315.614 317.906L314.861 315.655Z" fill="white"/>
<path fill-rule="evenodd" clip-rule="evenodd" d="M318.635 309.168L319.963 311.403L322.149 310.48L321.267 308.278L318.635 309.168Z" fill="white"/>
<path fill-rule="evenodd" clip-rule="evenodd" d="M366.534 398.383L364.113 401.128L367.862 401.168L366.534 398.383Z" fill="white"/>
<path fill-rule="evenodd" clip-rule="evenodd" d="M347.609 318.206L349.18 317.704L349.124 314.667L346.832 316.27L347.609 318.206Z" fill="white"/>
<path fill-rule="evenodd" clip-rule="evenodd" d="M438.184 373.644L439.9 373.174L439.431 370.567L437.269 372.186L438.184 373.644Z" fill="white"/>
<path fill-rule="evenodd" clip-rule="evenodd" d="M450.525 340.88L449.723 337.981L446.614 340.961L450.525 340.88Z" fill="white"/>
<path fill-rule="evenodd" clip-rule="evenodd" d="M380.462 392.577L380.203 390.228L379.369 389.491L378.357 390.746L379.151 393.014L380.462 392.577Z" fill="white"/>
<path fill-rule="evenodd" clip-rule="evenodd" d="M402.423 293.135L400.35 293.645L401.29 295.475L403.274 294.714L402.423 293.135Z" fill="white"/>
<path fill-rule="evenodd" clip-rule="evenodd" d="M418.101 311.258L415.745 309.444L414.797 310.553L418.101 311.258Z" fill="white"/>
<path fill-rule="evenodd" clip-rule="evenodd" d="M419.907 382.705L418.255 383.661L418.814 385.483L420.271 385.232L419.907 382.705Z" fill="white"/>
<path fill-rule="evenodd" clip-rule="evenodd" d="M455.699 294.058L454.946 297.111L456.752 294.714L455.699 294.058Z" fill="white"/>
<path fill-rule="evenodd" clip-rule="evenodd" d="M374.008 396.779L375.595 394.366L372.161 393.152L371.821 394.585L371.303 394.966L371.668 395.233L369.789 403.169L373.927 396.909L374.599 397.403L374.008 396.779Z" fill="white"/>
<path fill-rule="evenodd" clip-rule="evenodd" d="M395.767 377.11L396.026 377.587L394.399 375.053L386.868 376.656L388.471 384.187L387.41 383.993L386.957 382.317L386.22 382.64L386.285 383.588L387.313 383.977L382.422 383.078L383.888 382.373L382.308 372.826L369.903 378.17L369.846 377.846L368.437 378.211L368.777 378.656L365.352 380.138L371.733 383.904L375.158 386.56L381.896 383.337L387.224 389.937L393.654 384.851L391.969 381.936L396.642 378.559L396.512 378.34L397.719 377.539L397.427 375.717L395.767 377.11Z" fill="white"/>
<path fill-rule="evenodd" clip-rule="evenodd" d="M332.183 313.031L331.341 313.468L332.499 315.444L333.316 315.096L332.183 313.031Z" fill="white"/>
<path fill-rule="evenodd" clip-rule="evenodd" d="M329.016 334.134L328.457 333.073L326.554 333.114L327.704 334.653L329.016 334.134Z" fill="white"/>
<path fill-rule="evenodd" clip-rule="evenodd" d="M383.645 324.044L384.616 323.51L383.248 321.906L383.645 324.044Z" fill="white"/>
<path fill-rule="evenodd" clip-rule="evenodd" d="M396.852 354.031L396.593 350.8L395.743 351.132L396.852 354.031Z" fill="white"/>
<path fill-rule="evenodd" clip-rule="evenodd" d="M430.458 361.035L431.017 360.509L430.418 359.489L429.074 359.351L428.896 359.869L430.458 361.035Z" fill="white"/>
<path fill-rule="evenodd" clip-rule="evenodd" d="M334.733 364.202L335.778 363.797L335.381 362.064L334.248 363.092L334.733 364.202Z" fill="white"/>
<path fill-rule="evenodd" clip-rule="evenodd" d="M447.748 325.421L449.051 325.146L448.363 323.712L447.27 324.32L447.748 325.421Z" fill="white"/>
<path fill-rule="evenodd" clip-rule="evenodd" d="M327.915 359.092L328.093 357.343L326.595 357.926L326.789 359.367L327.915 359.092Z" fill="white"/>
<path fill-rule="evenodd" clip-rule="evenodd" d="M396.002 370.858L395.913 369.166L394.901 369.603L395.144 371.085L396.002 370.858Z" fill="white"/>
<path fill-rule="evenodd" clip-rule="evenodd" d="M372.105 373.207L371.376 371.935L369.757 372.283L371.255 373.555L372.105 373.207Z" fill="white"/>
<path fill-rule="evenodd" clip-rule="evenodd" d="M444.128 373.951L444.962 372.623L443.869 372.599L442.929 373.255L444.128 373.951Z" fill="white"/>
<path fill-rule="evenodd" clip-rule="evenodd" d="M399.022 384.211L400.002 383.62L399.525 382.373L398.634 383.037L399.022 384.211Z" fill="white"/>
<path fill-rule="evenodd" clip-rule="evenodd" d="M431.26 342.945L431.325 341.058L430.75 341.018L430.321 342.783L431.26 342.945Z" fill="white"/>
<path fill-rule="evenodd" clip-rule="evenodd" d="M430.045 376.454L430.847 376.154L430.483 374.68L429.017 374.98L430.045 376.454Z" fill="white"/>
<path fill-rule="evenodd" clip-rule="evenodd" d="M406.133 589.897L404.813 587.12L402.383 589.865L406.133 589.897Z" fill="white"/>
<path fill-rule="evenodd" clip-rule="evenodd" d="M385.102 504.999L385.888 506.935L387.459 506.433L387.394 503.404L385.102 504.999Z" fill="white"/>
<path fill-rule="evenodd" clip-rule="evenodd" d="M476.454 562.373L478.179 561.903L477.701 559.295L475.547 560.915L476.454 562.373Z" fill="white"/>
<path fill-rule="evenodd" clip-rule="evenodd" d="M488.795 529.609L488.002 526.718L484.892 529.698L488.795 529.609Z" fill="white"/>
<path fill-rule="evenodd" clip-rule="evenodd" d="M417.429 581.743L418.741 581.313L418.474 578.965L417.648 578.22L416.627 579.483L417.429 581.743Z" fill="white"/>
<path fill-rule="evenodd" clip-rule="evenodd" d="M441.544 483.451L440.694 481.864L438.629 482.374L439.56 484.204L441.544 483.451Z" fill="white"/>
<path fill-rule="evenodd" clip-rule="evenodd" d="M456.379 499.987L454.023 498.181L453.067 499.282L456.379 499.987Z" fill="white"/>
<path fill-rule="evenodd" clip-rule="evenodd" d="M456.97 573.839L455.715 574.649L465.886 581.856L459.214 572.406L458.396 572.932L458.177 571.434L456.533 572.39L456.97 573.839Z" fill="white"/>
<path fill-rule="evenodd" clip-rule="evenodd" d="M495.023 483.443L493.978 482.795L493.225 485.848L495.023 483.443Z" fill="white"/>
<path fill-rule="evenodd" clip-rule="evenodd" d="M409.582 583.702L412.87 586.14L410.165 583.265L409.582 583.702Z" fill="white"/>
<path fill-rule="evenodd" clip-rule="evenodd" d="M435.706 564.446L435.18 564.891L435.001 564.632L431.698 565.677L433.301 567.895L437.674 568.511L435.949 566.009L435.706 564.446Z" fill="white"/>
<path fill-rule="evenodd" clip-rule="evenodd" d="M370.777 504.182L371.587 503.833L370.461 501.76L369.611 502.198L370.777 504.182Z" fill="white"/>
<path fill-rule="evenodd" clip-rule="evenodd" d="M364.833 521.843L365.983 523.382L367.295 522.863L366.736 521.811L364.833 521.843Z" fill="white"/>
<path fill-rule="evenodd" clip-rule="evenodd" d="M447.132 556.866L447.601 555.821L445.099 554.404L444.613 555.238L447.132 556.866Z" fill="white"/>
<path fill-rule="evenodd" clip-rule="evenodd" d="M421.875 512.571L420.125 518.296L424.474 509.477L422.312 511.567L421.526 510.644L421.875 512.571Z" fill="white"/>
<path fill-rule="evenodd" clip-rule="evenodd" d="M435.131 542.768L434.872 539.537L434.021 539.861L435.131 542.768Z" fill="white"/>
<path fill-rule="evenodd" clip-rule="evenodd" d="M468.729 549.764L469.288 549.246L468.689 548.217L467.352 548.088L467.174 548.598L468.729 549.764Z" fill="white"/>
<path fill-rule="evenodd" clip-rule="evenodd" d="M486.633 512.441L485.548 513.057L486.026 514.15L487.33 513.875L486.633 512.441Z" fill="white"/>
<path fill-rule="evenodd" clip-rule="evenodd" d="M366.186 547.829L366.364 546.072L364.866 546.655L365.06 548.104L366.186 547.829Z" fill="white"/>
<path fill-rule="evenodd" clip-rule="evenodd" d="M463.101 574.309L464.154 574.026L463.943 572.463L462.874 572.778L463.101 574.309Z" fill="white"/>
<path fill-rule="evenodd" clip-rule="evenodd" d="M434.272 559.595L434.183 557.895L433.171 558.332L433.422 559.814L434.272 559.595Z" fill="white"/>
<path fill-rule="evenodd" clip-rule="evenodd" d="M410.376 561.935L409.647 560.672L408.028 561.012L409.534 562.292L410.376 561.935Z" fill="white"/>
<path fill-rule="evenodd" clip-rule="evenodd" d="M482.398 562.68L483.232 561.36L482.147 561.328L481.208 561.984L482.398 562.68Z" fill="white"/>
<path fill-rule="evenodd" clip-rule="evenodd" d="M436.912 571.766L437.301 572.941L438.273 572.349L437.803 571.102L436.912 571.766Z" fill="white"/>
<path fill-rule="evenodd" clip-rule="evenodd" d="M408.125 566.584L406.708 566.94L407.598 568.098L408.319 567.709L408.125 566.584Z" fill="white"/>
<path fill-rule="evenodd" clip-rule="evenodd" d="M469.53 531.682L469.603 529.787L469.028 529.746L468.599 531.52L469.53 531.682Z" fill="white"/>
<path fill-rule="evenodd" clip-rule="evenodd" d="M468.324 565.191L469.118 564.891L468.761 563.409L467.288 563.717L468.324 565.191Z" fill="white"/>
<path fill-rule="evenodd" clip-rule="evenodd" d="M307.5 623.755L304.431 625.196L305.111 627.585L308.634 626.621L307.5 623.755Z" fill="white"/>
<path fill-rule="evenodd" clip-rule="evenodd" d="M257.229 598.23L254.022 598.611L255.269 600.999L257.982 600.473L257.229 598.23Z" fill="white"/>
<path fill-rule="evenodd" clip-rule="evenodd" d="M263.642 590.853L261.002 591.736L262.331 593.963L264.517 593.048L263.642 590.853Z" fill="white"/>
<path fill-rule="evenodd" clip-rule="evenodd" d="M310.238 683.735L308.91 680.95L306.48 683.703L310.238 683.735Z" fill="white"/>
<path fill-rule="evenodd" clip-rule="evenodd" d="M289.199 598.837L289.984 600.773L291.555 600.271L291.499 597.242L289.199 598.837Z" fill="white"/>
<path fill-rule="evenodd" clip-rule="evenodd" d="M382.268 655.741L381.798 653.133L379.644 654.753L380.551 656.211L382.268 655.741Z" fill="white"/>
<path fill-rule="evenodd" clip-rule="evenodd" d="M392.892 623.447L392.099 620.548L388.989 623.528L392.892 623.447Z" fill="white"/>
<path fill-rule="evenodd" clip-rule="evenodd" d="M322.571 672.803L321.745 672.058L320.724 673.314L321.518 675.581L322.838 675.152L322.571 672.803Z" fill="white"/>
<path fill-rule="evenodd" clip-rule="evenodd" d="M358.12 592.019L357.165 593.12L360.477 593.817L358.12 592.019Z" fill="white"/>
<path fill-rule="evenodd" clip-rule="evenodd" d="M362.274 665.272L360.63 666.228L361.181 668.05L362.647 667.799L362.274 665.272Z" fill="white"/>
<path fill-rule="evenodd" clip-rule="evenodd" d="M313.679 677.541L316.966 679.97L314.254 677.103L313.679 677.541Z" fill="white"/>
<path fill-rule="evenodd" clip-rule="evenodd" d="M340.086 660.106L339.803 658.284L338.143 659.677L338.823 660.948L340.086 660.106Z" fill="white"/>
<path fill-rule="evenodd" clip-rule="evenodd" d="M274.866 598.011L275.684 597.671L274.558 595.598L273.708 596.035L274.866 598.011Z" fill="white"/>
<path fill-rule="evenodd" clip-rule="evenodd" d="M270.833 615.641L268.922 615.689L270.08 617.22L271.392 616.701L270.833 615.641Z" fill="white"/>
<path fill-rule="evenodd" clip-rule="evenodd" d="M351.229 650.704L351.699 649.66L349.196 648.242L348.71 649.076L351.229 650.704Z" fill="white"/>
<path fill-rule="evenodd" clip-rule="evenodd" d="M326.984 606.077L325.624 604.481L326.012 606.611L326.984 606.077Z" fill="white"/>
<path fill-rule="evenodd" clip-rule="evenodd" d="M338.961 633.367L338.118 633.699L339.22 636.606L338.961 633.367Z" fill="white"/>
<path fill-rule="evenodd" clip-rule="evenodd" d="M288.203 641.797L288.754 639.999L287.58 639.748L287.369 641.659L288.203 641.797Z" fill="white"/>
<path fill-rule="evenodd" clip-rule="evenodd" d="M372.826 643.602L373.385 643.076L372.785 642.047L371.441 641.926L371.271 642.436L372.826 643.602Z" fill="white"/>
<path fill-rule="evenodd" clip-rule="evenodd" d="M277.101 646.777L278.145 646.364L277.749 644.631L276.623 645.659L277.101 646.777Z" fill="white"/>
<path fill-rule="evenodd" clip-rule="evenodd" d="M391.427 607.713L390.73 606.279L389.645 606.887L390.123 607.988L391.427 607.713Z" fill="white"/>
<path fill-rule="evenodd" clip-rule="evenodd" d="M270.283 641.667L270.461 639.91L269.886 640.137L271.141 635.067L263.003 638.396L267.424 650.04L269.457 641.87L270.283 641.667Z" fill="white"/>
<path fill-rule="evenodd" clip-rule="evenodd" d="M367.198 668.147L368.259 667.864L368.04 666.301L366.971 666.609L367.198 668.147Z" fill="white"/>
<path fill-rule="evenodd" clip-rule="evenodd" d="M338.288 651.733L337.268 652.17L337.519 653.652L338.369 653.425L338.288 651.733Z" fill="white"/>
<path fill-rule="evenodd" clip-rule="evenodd" d="M313.744 654.51L312.124 654.851L313.622 656.13L314.473 655.774L313.744 654.51Z" fill="white"/>
<path fill-rule="evenodd" clip-rule="evenodd" d="M386.495 656.518L387.329 655.198L386.236 655.166L385.305 655.822L386.495 656.518Z" fill="white"/>
<path fill-rule="evenodd" clip-rule="evenodd" d="M341.9 664.94L341.009 665.604L341.398 666.779L342.369 666.187L341.9 664.94Z" fill="white"/>
<path fill-rule="evenodd" clip-rule="evenodd" d="M328.595 665.207L328.652 666.155L329.794 666.584L329.332 664.884L328.595 665.207Z" fill="white"/>
<path fill-rule="evenodd" clip-rule="evenodd" d="M312.222 660.422L310.804 660.778L311.703 661.936L312.416 661.547L312.222 660.422Z" fill="white"/>
<path fill-rule="evenodd" clip-rule="evenodd" d="M373.628 625.52L373.701 623.625L373.126 623.584L372.697 625.358L373.628 625.52Z" fill="white"/>
<path fill-rule="evenodd" clip-rule="evenodd" d="M373.215 658.729L372.859 657.247L371.385 657.547L372.421 659.029L373.215 658.729Z" fill="white"/>
<path fill-rule="evenodd" clip-rule="evenodd" d="M442.363 367.376L443.043 369.765L446.557 368.801L445.432 365.935L442.363 367.376Z" fill="white"/>
<path fill-rule="evenodd" clip-rule="evenodd" d="M395.159 340.402L391.953 340.791L393.2 343.18L395.921 342.653L395.159 340.402Z" fill="white"/>
<path fill-rule="evenodd" clip-rule="evenodd" d="M400.269 336.151L402.456 335.228L401.573 333.033L398.941 333.916L400.269 336.151Z" fill="white"/>
<path fill-rule="evenodd" clip-rule="evenodd" d="M446.84 423.138L444.411 425.883L448.168 425.916L446.84 423.138Z" fill="white"/>
<path fill-rule="evenodd" clip-rule="evenodd" d="M429.43 339.422L427.138 341.017L427.916 342.953L429.487 342.451L429.43 339.422Z" fill="white"/>
<path fill-rule="evenodd" clip-rule="evenodd" d="M518.482 398.391L520.207 397.921L519.729 395.314L517.575 396.933L518.482 398.391Z" fill="white"/>
<path fill-rule="evenodd" clip-rule="evenodd" d="M530.823 365.627L530.021 362.736L526.92 365.708L530.823 365.627Z" fill="white"/>
<path fill-rule="evenodd" clip-rule="evenodd" d="M459.457 417.761L460.769 417.332L460.501 414.975L459.675 414.238L458.663 415.502L459.457 417.761Z" fill="white"/>
<path fill-rule="evenodd" clip-rule="evenodd" d="M481.588 320.222L483.58 319.469L482.722 317.882L480.649 318.392L481.588 320.222Z" fill="white"/>
<path fill-rule="evenodd" clip-rule="evenodd" d="M498.408 336.005L496.051 334.199L495.096 335.3L498.408 336.005Z" fill="white"/>
<path fill-rule="evenodd" clip-rule="evenodd" d="M499.12 410.23L500.578 409.979L500.214 407.452L498.562 408.408L499.12 410.23Z" fill="white"/>
<path fill-rule="evenodd" clip-rule="evenodd" d="M537.059 319.461L535.998 318.805L535.253 321.858L537.059 319.461Z" fill="white"/>
<path fill-rule="evenodd" clip-rule="evenodd" d="M451.61 419.721L454.906 422.15L452.193 419.283L451.61 419.721Z" fill="white"/>
<path fill-rule="evenodd" clip-rule="evenodd" d="M476.073 401.857L476.753 403.128L478.017 402.286L477.725 400.464L476.073 401.857Z" fill="white"/>
<path fill-rule="evenodd" clip-rule="evenodd" d="M412.489 337.778L411.647 338.216L412.805 340.2L413.615 339.851L412.489 337.778Z" fill="white"/>
<path fill-rule="evenodd" clip-rule="evenodd" d="M408.011 359.4L409.323 358.881L408.764 357.821L406.853 357.861L408.011 359.4Z" fill="white"/>
<path fill-rule="evenodd" clip-rule="evenodd" d="M489.168 392.884L489.63 391.84L487.128 390.423L486.65 391.257L489.168 392.884Z" fill="white"/>
<path fill-rule="evenodd" clip-rule="evenodd" d="M464.915 348.257L463.554 346.654L463.943 348.791L464.915 348.257Z" fill="white"/>
<path fill-rule="evenodd" clip-rule="evenodd" d="M477.151 378.786L476.892 375.547L476.05 375.879L477.151 378.786Z" fill="white"/>
<path fill-rule="evenodd" clip-rule="evenodd" d="M425.308 383.839L424.604 384.041L424.83 385.572L425.883 385.288L425.689 383.904L426.142 383.977L426.693 382.179L425.511 381.928L425.3 383.839H425.308Z" fill="white"/>
<path fill-rule="evenodd" clip-rule="evenodd" d="M510.757 385.782L511.324 385.256L510.716 384.236L509.38 384.106L509.202 384.616L510.757 385.782Z" fill="white"/>
<path fill-rule="evenodd" clip-rule="evenodd" d="M416.077 388.544L415.68 386.811L414.554 387.839L415.032 388.957L416.077 388.544Z" fill="white"/>
<path fill-rule="evenodd" clip-rule="evenodd" d="M528.054 350.168L529.358 349.893L528.661 348.459L527.576 349.067L528.054 350.168Z" fill="white"/>
<path fill-rule="evenodd" clip-rule="evenodd" d="M408.214 383.847L408.392 382.09L406.894 382.673L407.088 384.114L408.214 383.847Z" fill="white"/>
<path fill-rule="evenodd" clip-rule="evenodd" d="M505.129 410.327L506.182 410.036L505.971 408.481L504.91 408.788L505.129 410.327Z" fill="white"/>
<path fill-rule="evenodd" clip-rule="evenodd" d="M475.45 395.832L476.3 395.605L476.211 393.913L475.207 394.35L475.45 395.832Z" fill="white"/>
<path fill-rule="evenodd" clip-rule="evenodd" d="M450.063 397.03L451.561 398.302L452.403 397.954L451.675 396.69L450.063 397.03Z" fill="white"/>
<path fill-rule="evenodd" clip-rule="evenodd" d="M524.426 398.699L525.26 397.371L524.175 397.346L523.235 398.002L524.426 398.699Z" fill="white"/>
<path fill-rule="evenodd" clip-rule="evenodd" d="M480.309 408.368L479.831 407.12L478.94 407.784L479.329 408.959L480.309 408.368Z" fill="white"/>
<path fill-rule="evenodd" clip-rule="evenodd" d="M466.526 407.388L466.583 408.343L467.724 408.764L467.263 407.064L466.526 407.388Z" fill="white"/>
<path fill-rule="evenodd" clip-rule="evenodd" d="M448.735 402.958L449.626 404.116L450.347 403.727L450.152 402.602L448.735 402.958Z" fill="white"/>
<path fill-rule="evenodd" clip-rule="evenodd" d="M511.566 367.7L511.631 365.805L511.056 365.764L510.627 367.53L511.566 367.7Z" fill="white"/>
<path fill-rule="evenodd" clip-rule="evenodd" d="M510.352 401.201L511.145 400.909L510.781 399.427L509.323 399.727L510.352 401.201Z" fill="white"/>
<path fill-rule="evenodd" clip-rule="evenodd" d="M435.074 437.277L429.341 436.362L426.434 437.957L426.798 440.84L430.515 439.666L435.827 441.399L435.074 437.277Z" fill="white"/>
<path fill-rule="evenodd" clip-rule="evenodd" d="M401.217 398.099L395.476 397.589L394.982 402.504L397.873 401.735L401.217 398.099Z" fill="white"/>
<path fill-rule="evenodd" clip-rule="evenodd" d="M371.15 353.634L368.235 356.047L371.085 357.335L371.15 353.634Z" fill="white"/>
<path fill-rule="evenodd" clip-rule="evenodd" d="M280.964 366.509L282.964 369.417L287.102 367.846L285.92 364.947L280.964 366.509Z" fill="white"/>
<path fill-rule="evenodd" clip-rule="evenodd" d="M283.531 311.088L281.142 306.529L278.251 307.306L279.441 310.197L283.531 311.088Z" fill="white"/>
<path fill-rule="evenodd" clip-rule="evenodd" d="M348.386 289.58L350.443 289.612L350.079 286.729L348.386 289.58Z" fill="white"/>
<path fill-rule="evenodd" clip-rule="evenodd" d="M251.844 363.554L250.686 359.019L246.167 358.938L248.127 364.72L253.01 367.684L255.52 364.849L251.844 363.554Z" fill="white"/>
<path fill-rule="evenodd" clip-rule="evenodd" d="M230.968 433.042L228.077 433.414L227.615 436.686L231.704 437.585L235.462 434.353L230.968 433.042Z" fill="white"/>
<path fill-rule="evenodd" clip-rule="evenodd" d="M379.733 577.678L378.567 573.556L373.668 571.823L377.701 576.414L381.337 580.172L379.733 577.678Z" fill="white"/>
<path fill-rule="evenodd" clip-rule="evenodd" d="M406.003 578.941L403.169 581.079L410.935 579.022L406.003 578.941Z" fill="white"/>
<path fill-rule="evenodd" clip-rule="evenodd" d="M217.468 515.138C218.278 513.656 225.509 513.518 225.509 513.518L225.631 506.4L221.752 509.081L217.023 510.271L216.723 507.161L215.525 509.453L215.905 510.563L211.856 511.607L210.123 517.057C210.123 517.057 216.691 516.644 217.468 515.138Z" fill="white"/>
<path fill-rule="evenodd" clip-rule="evenodd" d="M423.073 344.224L420.725 336.79L416.676 333.438L413.615 339.851L417.299 345.771L423.073 344.224Z" fill="white"/>
<path fill-rule="evenodd" clip-rule="evenodd" d="M492.383 474.389L499.874 468.761L496.61 467.061L489.986 470.243L492.383 474.389Z" fill="white"/>
</g>
<path fill-rule="evenodd" clip-rule="evenodd" d="M434.426 671.548L436.378 670.981L428.798 663.628L400.666 670.795V660.697H271.886L277.295 669.515L399.962 670.973L342.232 685.671L345.479 697.421L402.132 680.942L402.828 685.671H498.059L488.318 672.447L434.426 671.548Z" fill="#414141"/>
<path fill-rule="evenodd" clip-rule="evenodd" d="M100.907 682.731L101.993 688.61L130.125 679.792L127.962 670.981L100.907 682.731Z" fill="#414141"/>
<path fill-rule="evenodd" clip-rule="evenodd" d="M65.7385 657.758L94.1459 659.96L95.7735 652.251H73.0428L65.7385 657.758Z" fill="#414141"/>
<path fill-rule="evenodd" clip-rule="evenodd" d="M472.089 660.697L471.547 665.839L528.361 669.507L526.742 660.697H472.089Z" fill="#414141"/>
<path fill-rule="evenodd" clip-rule="evenodd" d="M269.724 668.042L247.544 668.779L244.839 672.447L260.104 677.735L214.391 675.37L251.876 664.365L250.248 659.96L220.95 667.329L219.946 657.758H145.276L144.199 668.042H218.108L206.423 670.981L210.852 675.184L186.397 673.921L184.235 688.61L214.755 690.805L144.741 690.076L142.037 697.421L214.537 699.624L215.079 690.829L327.081 698.895L328.158 681.266L270.145 678.261L269.724 668.042Z" fill="#414141"/>
<path fill-rule="evenodd" clip-rule="evenodd" d="M533.771 678.326V682.731L594.91 669.507L592.205 665.839L533.771 678.326Z" fill="#414141"/>
<path fill-rule="evenodd" clip-rule="evenodd" d="M566.236 662.9H547.295L546.218 665.839L566.236 668.042V662.9Z" fill="#414141"/>
<path fill-rule="evenodd" clip-rule="evenodd" d="M385.515 697.421L431.511 698.158V693.753L389.305 689.339L385.515 697.421Z" fill="#414141"/>
<path fill-rule="evenodd" clip-rule="evenodd" d="M650.105 674.65H624.128L623.585 679.055L651.183 680.529L650.105 674.65Z" fill="#414141"/>
<path fill-rule="evenodd" clip-rule="evenodd" d="M0 670.981L8.11406 674.285L15.4183 672.083L4.86682 667.669L0 670.981Z" fill="#414141"/>
<path fill-rule="evenodd" clip-rule="evenodd" d="M449.901 658.494L432.045 657.758L430.968 661.426L445.577 665.102L449.901 658.494Z" fill="#04518C"/>
<path fill-rule="evenodd" clip-rule="evenodd" d="M602.489 673.184L606.279 676.123L617.098 670.244L614.936 665.839L602.489 673.184Z" fill="#414141"/>
<path d="M84.9951 504.457L162.605 511.745L173.343 489.265L84.9951 504.457Z" fill="#3148B3"/>
<path d="M50.2634 676.536L633.221 677.751L467.522 659.936L50.2634 676.536Z" fill="#414141"/>
<path d="M383.385 396.957L385.564 380.292C385.564 380.292 368.825 368.955 350.2 378.397L349.828 398.796C349.828 398.796 387.369 396.885 383.385 396.957Z" fill="#718BFF"/>
<path d="M370.704 397.8C379.215 397.346 386.9 396.917 385.677 399.792L385.847 380.138C385.847 380.138 378.422 374.324 369.514 374.64" fill="#354FC3"/>
<path d="M320.983 370.882L393.402 392.455L395.127 457.538L475.337 470.065L478.552 667.224L401.695 676.536L257.634 642.38L320.983 370.882Z" fill="#354FC4"/>
<path d="M457.125 270.655L457.343 248.135C457.343 248.135 439.593 238.231 417.469 248.872L420.004 273.214C420.004 273.214 457.902 270.623 457.125 270.655Z" fill="#718BFF"/>
<path d="M438.362 272.032L458.339 270.631L458.566 247.714C458.566 247.714 449.343 242.766 435.795 243.616" fill="#354FC3"/>
<path d="M493.363 285.11L495.881 266.533C495.881 266.533 481.192 256.516 460.85 262.906L459.044 279.765C459.044 279.765 494.051 285.15 493.363 285.11Z" fill="#718BFF"/>
<path d="M475.831 282.356C484.738 283.725 493.719 285.134 493.362 285.11L495.881 266.533C495.881 266.533 488.933 261.796 477.985 260.913" fill="#354FC3"/>
<path d="M406.06 278.729L406.222 259.075C406.222 259.075 386.641 250.419 370.121 264.161L372.502 280.567C372.502 280.567 410.044 278.656 406.06 278.729Z" fill="#718BFF"/>
<path d="M391.759 279.571C400.269 279.117 407.954 278.688 406.059 278.761L406.221 259.108C401.241 257.158 395.913 256.252 390.568 256.443" fill="#354FC3"/>
<path d="M449.343 250.338L501.469 282.284L567.628 352.217L434.305 372.17L367.417 360.89L449.343 250.338Z" fill="#354FC3"/>
<path d="M450.371 251.544L512.563 337.641L367.416 360.89L364.121 275.425L450.371 251.544Z" fill="#879CFD"/>
<path d="M423.251 473.102V451.157C423.251 451.157 407.339 440.791 385.296 451.278L386.106 475.807C386.106 475.807 424.028 473.061 423.251 473.102Z" fill="#718BFF"/>
<path d="M404.448 475.345C414.546 474.608 424.369 473.847 424.369 473.871V451.553C424.369 451.553 416.692 446.33 403.128 447.229" fill="#354FC3"/>
<path d="M465.295 478.333L465.555 459.586C465.555 459.586 449.877 451.367 430.58 460.121L430.815 477.07C430.815 477.07 465.976 478.284 465.295 478.333Z" fill="#718BFF"/>
<path d="M447.675 477.661C456.582 477.977 465.636 478.309 465.296 478.333L465.555 459.586C465.555 459.586 458.137 455.699 447.245 456.112" fill="#354FC3"/>
<path d="M371.238 473.078L372.607 454.291C372.607 454.291 353.172 443.496 336.434 455.368L337.681 474.916C337.681 474.916 375.223 473.005 371.238 473.078Z" fill="#718BFF"/>
<path d="M358.557 473.92C367.068 473.466 374.753 473.037 372.858 473.11L373.02 453.456C368.04 451.507 362.712 450.6 357.367 450.792" fill="#354FC3"/>
<path d="M231.332 403.46V381.515C231.332 381.515 215.42 371.15 193.377 381.636L194.187 406.165C194.187 406.165 232.109 403.42 231.332 403.46Z" fill="#718BFF"/>
<path d="M212.529 405.703C222.627 404.966 232.449 404.205 232.449 404.229V381.912C232.449 381.912 224.773 376.689 211.209 377.587" fill="#354FC3"/>
<path d="M334.175 384.025V362.08C334.175 362.08 318.262 351.715 296.22 362.202L297.03 386.73C297.03 386.73 334.952 383.985 334.175 384.025Z" fill="#718BFF"/>
<path d="M315.371 386.268C325.47 385.531 335.292 384.77 335.292 384.795V362.477C335.292 362.477 327.615 357.254 314.052 358.153" fill="#354FC3"/>
<path d="M179.319 409.914L180.688 391.127C180.688 391.127 161.253 380.333 144.515 392.204L145.762 411.752C145.762 411.752 183.303 409.841 179.319 409.914Z" fill="#718BFF"/>
<path d="M166.638 410.756C175.149 410.303 182.834 409.874 180.939 409.947L181.101 390.293C176.12 388.344 170.793 387.437 165.448 387.629" fill="#354FC3"/>
<path d="M279.733 389.669L281.101 370.882C281.101 370.882 261.666 360.088 244.928 371.959L246.175 391.508C246.175 391.508 283.717 389.597 279.733 389.669Z" fill="#718BFF"/>
<path d="M267.051 390.512C275.562 390.058 283.247 389.629 281.352 389.702L281.514 370.048C276.533 368.099 271.206 367.192 265.861 367.384" fill="#354FC3"/>
<path d="M321.623 469.425L320.983 370.882L139.955 406.165L84.9951 504.457L138.441 495.549L146.077 674.374L401.695 676.536L398.593 460.129L321.623 469.425Z" fill="#879CFD"/>
<path d="M321.623 469.425L138.49 493.929L321.623 467.749" fill="#5C2849"/>
<path d="M401.792 573.078L142.539 586.245L401.792 571.402" fill="#5C2849"/>
<path d="M232.328 576.066L237.915 675.97H236.498" fill="#5C2849"/>
<path d="M227.469 385.766L233.057 480.811H231.639" fill="#5C2849"/>
<path d="M320.595 576.066L323.753 675.97H322.336" fill="#5C2849"/>
<path d="M475.831 534.014L475.337 470.065L398.593 460.129L399.452 520.247" fill="#354FC3"/>
</svg>
