<svg width="125" height="48" viewBox="0 0 125 48" fill="none" xmlns="http://www.w3.org/2000/svg">
<path d="M20 22.123C22.5137 23.571 23.7705 25.7568 23.7705 28.6803C23.7705 31.112 22.9098 33.1066 21.1885 34.6639C19.4672 36.2213 17.3497 37 14.8361 37H2.66393V8.31148H13.9754C16.4344 8.31148 18.4973 9.0765 20.1639 10.6066C21.8579 12.1093 22.7049 14.0355 22.7049 16.3852C22.7049 18.7623 21.8033 20.6749 20 22.123ZM13.9754 13.5984H8.31967V19.9098H13.9754C14.8497 19.9098 15.5738 19.6093 16.1475 19.0082C16.7486 18.4071 17.0492 17.6557 17.0492 16.7541C17.0492 15.8525 16.7623 15.1011 16.1885 14.5C15.6148 13.8989 14.877 13.5984 13.9754 13.5984ZM14.8361 31.7131C15.7923 31.7131 16.5847 31.3989 17.2131 30.7705C17.8415 30.1148 18.1557 29.2951 18.1557 28.3115C18.1557 27.3552 17.8415 26.5628 17.2131 25.9344C16.5847 25.2787 15.7923 24.9508 14.8361 24.9508H8.31967V31.7131H14.8361ZM41.1972 16.5082H46.484V37H41.1972V34.7049C39.913 36.6175 37.8775 37.5738 35.0906 37.5738C32.8502 37.5738 30.9922 36.8224 29.5168 35.3197C28.0688 33.8169 27.3447 31.7404 27.3447 29.0902V16.5082H32.6316V28.4344C32.6316 29.8005 33.0004 30.8525 33.7381 31.5902C34.4759 32.3005 35.4595 32.6557 36.689 32.6557C38.0551 32.6557 39.148 32.2322 39.9677 31.3852C40.7873 30.5383 41.1972 29.2678 41.1972 27.5738V16.5082ZM53.9491 14.0492C53.0748 14.0492 52.3098 13.735 51.6541 13.1066C51.0257 12.4508 50.7114 11.6858 50.7114 10.8115C50.7114 9.93716 51.0257 9.17213 51.6541 8.5164C52.3098 7.86066 53.0748 7.53279 53.9491 7.53279C54.8508 7.53279 55.6158 7.86066 56.2442 8.5164C56.9 9.17213 57.2278 9.93716 57.2278 10.8115C57.2278 11.6858 56.9 12.4508 56.2442 13.1066C55.6158 13.735 54.8508 14.0492 53.9491 14.0492ZM51.3262 37V16.5082H56.6131V37H51.3262ZM61.452 37V7.08197H66.7389V37H61.452ZM87.1106 8.31148H92.3975V37H87.1106V34.582C85.5533 36.5765 83.3402 37.5738 80.4713 37.5738C77.7117 37.5738 75.3484 36.5355 73.3811 34.459C71.4412 32.3552 70.4713 29.7869 70.4713 26.7541C70.4713 23.7213 71.4412 21.1667 73.3811 19.0902C75.3484 16.9863 77.7117 15.9344 80.4713 15.9344C83.3402 15.9344 85.5533 16.9317 87.1106 18.9262V8.31148ZM77.3565 30.9344C78.4494 32 79.8156 32.5328 81.4549 32.5328C83.0943 32.5328 84.4467 32 85.5123 30.9344C86.5779 29.8415 87.1106 28.4481 87.1106 26.7541C87.1106 25.0601 86.5779 23.6803 85.5123 22.6148C84.4467 21.5219 83.0943 20.9754 81.4549 20.9754C79.8156 20.9754 78.4494 21.5219 77.3565 22.6148C76.291 23.6803 75.7582 25.0601 75.7582 26.7541C75.7582 28.4481 76.291 29.8415 77.3565 30.9344ZM97.4785 8.31148H103.134V37H97.4785V8.31148ZM119.92 21.5902H115.289V30.1148C115.289 30.8251 115.467 31.3443 115.822 31.6721C116.177 32 116.696 32.1913 117.379 32.2459C118.062 32.2732 118.909 32.2596 119.92 32.2049V37C116.286 37.4098 113.718 37.0683 112.215 35.9754C110.74 34.8825 110.002 32.929 110.002 30.1148V21.5902H106.437V16.5082H110.002V12.3689L115.289 10.7705V16.5082H119.92V21.5902Z" fill="#AA05D9"/>
<path d="M76.0757 41.9098C76.5641 41.9098 76.9671 42.084 77.2848 42.4324C77.6058 42.7773 77.7663 43.2008 77.7663 43.7029C77.7663 44.2049 77.6058 44.6301 77.2848 44.9785C76.9671 45.3234 76.5641 45.4959 76.0757 45.4959H74.6926V41.9098H76.0757ZM76.0757 45.1578C76.4685 45.1578 76.7895 45.0178 77.0389 44.7377C77.2916 44.4577 77.418 44.1127 77.418 43.7029C77.418 43.293 77.2916 42.9481 77.0389 42.668C76.7895 42.388 76.4685 42.248 76.0757 42.248H75.0512V45.1578H76.0757ZM82.9903 41.9098H83.3489V45.4959H82.9903V41.9098ZM92.2089 43.79V43.9744C92.2089 44.4184 92.0501 44.7941 91.7325 45.1014C91.4149 45.4054 90.9897 45.5574 90.4569 45.5574C89.9138 45.5574 89.4647 45.3781 89.1095 45.0195C88.7543 44.6609 88.5767 44.222 88.5767 43.7029C88.5767 43.1838 88.7543 42.7449 89.1095 42.3863C89.4647 42.0277 89.9138 41.8484 90.4569 41.8484C90.7882 41.8484 91.0921 41.9286 91.3688 42.0891C91.6454 42.2497 91.8588 42.4631 92.0091 42.7295L91.6915 42.9139C91.5788 42.6954 91.4114 42.5212 91.1895 42.3914C90.9675 42.2616 90.7233 42.1967 90.4569 42.1967C90.0095 42.1967 89.644 42.3419 89.3606 42.6322C89.0771 42.9225 88.9354 43.2794 88.9354 43.7029C88.9354 44.1264 89.0771 44.4833 89.3606 44.7736C89.644 45.0639 90.0095 45.209 90.4569 45.209C90.8599 45.209 91.1826 45.1083 91.4251 44.9068C91.6676 44.7019 91.8059 44.4423 91.8401 44.1281H90.4159V43.79H92.2089ZM97.4346 41.9098H97.7933V45.4959H97.4346V41.9098ZM105.48 41.9098V42.248H104.379V45.4959H104.02V42.248H102.919V41.9098H105.48ZM112.735 45.4959L112.402 44.6148H110.702L110.369 45.4959H109.989L111.368 41.9098H111.736L113.114 45.4959H112.735ZM110.83 44.2766H112.274L111.552 42.3555L110.83 44.2766ZM118.544 45.1578H120.184V45.4959H118.186V41.9098H118.544V45.1578Z" fill="#AA05D9"/>
</svg>
