<svg width="200" height="74" viewBox="0 0 200 74" fill="none" xmlns="http://www.w3.org/2000/svg">
<path d="M74 37C74 57.4345 57.4345 74 37 74C16.5655 74 0 57.4345 0 37C0 16.5655 16.5655 0 37 0C57.4345 0 74 16.5655 74 37ZM6.74277 37C6.74277 53.7106 20.2894 67.2572 37 67.2572C53.7106 67.2572 67.2572 53.7106 67.2572 37C67.2572 20.2894 53.7106 6.74277 37 6.74277C20.2894 6.74277 6.74277 20.2894 6.74277 37Z" fill="#01B678"/>
<path d="M74 37C74 57.4345 57.4345 74 37 74C16.5655 74 0 57.4345 0 37C0 16.5655 16.5655 0 37 0C57.4345 0 74 16.5655 74 37ZM6.74277 37C6.74277 53.7106 20.2894 67.2572 37 67.2572C53.7106 67.2572 67.2572 53.7106 67.2572 37C67.2572 20.2894 53.7106 6.74277 37 6.74277C20.2894 6.74277 6.74277 20.2894 6.74277 37Z" fill="url(#paint0_linear_68_2)"/>
<g filter="url(#filter0_d_68_2)">
<path d="M36.4386 46.1021C34.1565 46.1851 33.0328 45.8255 32.7562 45.6353C26.0336 42.3989 25.9096 36.8529 26.688 34.4845C28.8456 28.1362 34.4677 27.4827 37.0091 27.9495C42.7349 29.0283 44.5813 33.8275 44.7888 36.0923V52.7409C45.4526 56.7241 48.7996 58.0311 50.3901 58.1866C55.1202 58.1037 56.5793 54.0375 56.7176 52.0147V37.3889C56.7591 29.8374 52.8969 24.1461 50.9607 22.2444C38.8451 11.6225 26.8955 16.4701 22.4351 20.2216C13.8048 27.2337 13.8601 37.3889 14.9666 41.5899C17.0827 50.5106 23.6626 55.092 26.688 56.2676C35.3598 60.0019 39.6369 57.1666 40.6915 55.2822C43.3884 49.0999 38.9799 46.5862 36.4386 46.1021Z" fill="url(#paint1_linear_68_2)"/>
<path d="M20.8274 43.3533C21.6987 53.2698 29.1084 57.1666 32.7044 57.8754C16.5641 54.888 13.8775 40.9675 14.5518 34.3807C14.9667 30.3975 18.1477 26.7739 19.6864 25.46C25.7027 20.0661 32.8773 21.622 35.7126 23.0742C42.1853 25.7712 44.4259 32.6346 44.7371 35.7292C42.9114 28.0117 36.577 27.3271 33.638 27.9495C23.182 29.8166 20.7409 38.9967 20.8274 43.3533Z" fill="url(#paint2_linear_68_2)"/>
<path d="M20.9311 41.642C21.7609 32.3064 29.3332 28.6931 33.0156 28.0535C30.1112 29.0735 24.7795 32.7109 26.6881 39.1006C28.5967 45.4904 34.0529 46.4309 36.5424 46.1024C39.6128 46.7663 41.0373 49.1105 41.3658 50.1997C42.4031 57.9172 36.0237 58.5326 32.7044 57.8757C22.29 55.2617 20.5162 45.9641 20.9311 41.642Z" fill="url(#paint3_linear_68_2)"/>
</g>
<g filter="url(#filter1_d_68_2)">
<path d="M116.49 37.4192V48.5H112.523V43.8032H112.432C111.733 45.4144 110.608 46.7064 109.058 47.6792C107.538 48.6216 105.759 49.0928 103.722 49.0928C100.622 49.0928 97.9464 48.0288 95.6968 45.9008C93.4472 43.7728 92.3224 40.8848 92.3224 37.2368C92.3224 33.8016 93.4472 30.9744 95.6968 28.7552C97.9768 26.5056 100.895 25.3808 104.452 25.3808C108.009 25.3808 110.897 26.4904 113.116 28.7096C115.366 30.9288 116.49 33.832 116.49 37.4192ZM98.8432 42.8912C100.272 44.3504 102.142 45.08 104.452 45.08C106.762 45.08 108.632 44.3504 110.061 42.8912C111.49 41.432 112.204 39.5472 112.204 37.2368C112.204 34.9264 111.49 33.0416 110.061 31.5824C108.632 30.1232 106.762 29.3936 104.452 29.3936C102.142 29.3936 100.272 30.1232 98.8432 31.5824C97.4144 33.0416 96.7 34.9264 96.7 37.2368C96.7 39.5472 97.4144 41.432 98.8432 42.8912ZM144.233 38.8328H124.625V38.924C124.96 40.8088 125.796 42.3136 127.133 43.4384C128.471 44.5328 130.158 45.08 132.195 45.08C135.113 45.08 137.211 44.1224 138.488 42.2072H143.276C142.394 44.3352 140.965 46.0224 138.989 47.2688C137.044 48.4848 134.779 49.0928 132.195 49.0928C128.638 49.0928 125.72 47.9832 123.44 45.764C121.19 43.5144 120.065 40.672 120.065 37.2368C120.065 33.8016 121.19 30.9744 123.44 28.7552C125.72 26.5056 128.638 25.3808 132.195 25.3808C135.721 25.3808 138.609 26.5056 140.859 28.7552C143.109 30.9744 144.233 33.8016 144.233 37.2368V38.8328ZM137.029 30.8984C135.691 29.8952 134.08 29.3936 132.195 29.3936C130.31 29.3936 128.699 29.8952 127.361 30.8984C126.054 31.8712 125.188 33.1936 124.762 34.8656V34.9568H139.673V34.8656C139.248 33.1936 138.366 31.8712 137.029 30.8984ZM167.712 28.7552C169.992 30.9744 171.132 33.8016 171.132 37.2368C171.132 40.672 169.992 43.5144 167.712 45.764C165.463 47.9832 162.56 49.0928 159.003 49.0928C155.446 49.0928 152.528 47.9832 150.248 45.764C147.998 43.5144 146.873 40.672 146.873 37.2368C146.873 33.8016 147.998 30.9744 150.248 28.7552C152.528 26.5056 155.446 25.3808 159.003 25.3808C162.56 25.3808 165.463 26.5056 167.712 28.7552ZM153.394 42.8912C154.823 44.3504 156.692 45.08 159.003 45.08C161.313 45.08 163.183 44.3504 164.612 42.8912C166.04 41.432 166.755 39.5472 166.755 37.2368C166.755 34.9264 166.04 33.0416 164.612 31.5824C163.183 30.1232 161.313 29.3936 159.003 29.3936C156.692 29.3936 154.823 30.1232 153.394 31.5824C151.965 33.0416 151.251 34.9264 151.251 37.2368C151.251 39.5472 151.965 41.432 153.394 42.8912ZM196.935 48.5H192.603V36.7808C192.603 34.3792 191.995 32.5552 190.779 31.3088C189.563 30.032 187.906 29.3936 185.808 29.3936C183.711 29.3936 182.054 30.032 180.838 31.3088C179.622 32.5552 179.014 34.3792 179.014 36.7808V48.5H174.682V36.7808C174.682 33.1024 175.685 30.2904 177.692 28.3448C179.698 26.3688 182.404 25.3808 185.808 25.3808C189.213 25.3808 191.919 26.3536 193.925 28.2992C195.932 30.2448 196.935 33.072 196.935 36.7808V48.5Z" fill="#01B678"/>
</g>
<defs>
<filter id="filter0_d_68_2" x="14.1538" y="15.6444" width="42.8608" height="42.987" filterUnits="userSpaceOnUse" color-interpolation-filters="sRGB">
<feFlood flood-opacity="0" result="BackgroundImageFix"/>
<feColorMatrix in="SourceAlpha" type="matrix" values="0 0 0 0 0 0 0 0 0 0 0 0 0 0 0 0 0 0 127 0" result="hardAlpha"/>
<feOffset dy="0.148307"/>
<feGaussianBlur stdDeviation="0.148307"/>
<feComposite in2="hardAlpha" operator="out"/>
<feColorMatrix type="matrix" values="0 0 0 0 0 0 0 0 0 0 0 0 0 0 0 0 0 0 0.15 0"/>
<feBlend mode="normal" in2="BackgroundImageFix" result="effect1_dropShadow_68_2"/>
<feBlend mode="normal" in="SourceGraphic" in2="effect1_dropShadow_68_2" result="shape"/>
</filter>
<filter id="filter1_d_68_2" x="91.7668" y="25.3809" width="105.724" height="24.8233" filterUnits="userSpaceOnUse" color-interpolation-filters="sRGB">
<feFlood flood-opacity="0" result="BackgroundImageFix"/>
<feColorMatrix in="SourceAlpha" type="matrix" values="0 0 0 0 0 0 0 0 0 0 0 0 0 0 0 0 0 0 127 0" result="hardAlpha"/>
<feOffset dy="0.555686"/>
<feGaussianBlur stdDeviation="0.277843"/>
<feComposite in2="hardAlpha" operator="out"/>
<feColorMatrix type="matrix" values="0 0 0 0 0 0 0 0 0 0 0 0 0 0 0 0 0 0 0.15 0"/>
<feBlend mode="normal" in2="BackgroundImageFix" result="effect1_dropShadow_68_2"/>
<feBlend mode="normal" in="SourceGraphic" in2="effect1_dropShadow_68_2" result="shape"/>
</filter>
<linearGradient id="paint0_linear_68_2" x1="5.52888e-08" y1="20.4741" x2="61.9863" y2="63.3963" gradientUnits="userSpaceOnUse">
<stop stop-color="#028C73"/>
<stop offset="0.43479" stop-color="#00E1A7" stop-opacity="0.593266"/>
<stop offset="0.772705" stop-color="#03704F" stop-opacity="0.266632"/>
<stop offset="1" stop-color="#01B678" stop-opacity="0"/>
</linearGradient>
<linearGradient id="paint1_linear_68_2" x1="48.8206" y1="37.0006" x2="30.7271" y2="15.7927" gradientUnits="userSpaceOnUse">
<stop stop-color="#00B678"/>
<stop offset="1" stop-color="#00754D"/>
</linearGradient>
<linearGradient id="paint2_linear_68_2" x1="23.3714" y1="52.4815" x2="38.7752" y2="26.2898" gradientUnits="userSpaceOnUse">
<stop stop-color="#03D18B"/>
<stop offset="1" stop-color="#00784F"/>
</linearGradient>
<linearGradient id="paint3_linear_68_2" x1="40.0198" y1="56.5791" x2="29.9581" y2="28.1053" gradientUnits="userSpaceOnUse">
<stop offset="0.140285" stop-color="#00704A"/>
<stop offset="0.589513" stop-color="#00B678"/>
<stop offset="1" stop-color="#008F5E"/>
</linearGradient>
</defs>
</svg>
